<svg width="110" height="58" viewBox="0 0 110 58" fill="none" xmlns="http://www.w3.org/2000/svg">
<path d="M54.2951 0.873072C53.9336 0.964624 53.7107 1.13628 53.4637 1.51965C53.0962 2.09757 52.9998 2.17196 52.5419 2.25206C51.5056 2.42944 51.2104 2.78993 51.4213 3.60244C51.5297 3.99726 51.5117 4.04876 51.2586 4.10025C51.0478 4.15175 50.9273 4.05448 50.7044 3.65394C50.4573 3.21335 50.2344 3.08747 49.7283 3.09891C49.3488 3.09891 48.9752 3.21335 48.7825 3.37929C48.7222 3.43078 48.6138 3.64822 48.5475 3.86565C48.4149 4.27763 48.3125 4.42068 48.1438 4.43213C47.933 4.44929 47.8667 4.40924 47.5956 4.12886C47.3305 3.85421 47.2883 3.83704 46.975 3.80843C46.5533 3.7741 45.8845 3.9572 45.6436 4.16892C45.3965 4.39207 45.3182 4.54084 45.2459 4.90705C45.2098 5.09015 45.1495 5.27898 45.1134 5.31903C44.9869 5.4678 44.7218 5.41058 44.4205 5.17026C44.0651 4.88988 43.8361 4.82122 43.4686 4.88988C43.1252 4.95282 42.9023 5.05582 42.7035 5.26753C42.4926 5.48497 42.4384 5.59368 42.342 5.99994C42.2998 6.18877 42.2396 6.37759 42.2094 6.41192C42.107 6.54353 41.8419 6.48631 41.4865 6.25743C40.9322 5.90267 40.6129 5.89122 40.1008 6.20021C39.7574 6.4062 39.6369 6.61791 39.5706 7.13861C39.5284 7.48765 39.4923 7.56776 39.3356 7.69936C39.0766 7.92252 38.7934 7.91107 38.3717 7.65931C38.1608 7.5277 37.974 7.45904 37.8415 7.45904C37.5824 7.45904 37.1667 7.65358 36.8474 7.92252C36.6064 8.12278 36.6064 8.12851 36.5763 8.60915C36.5462 9.13557 36.4438 9.4045 36.269 9.4045C36.2088 9.4045 35.9738 9.34156 35.7569 9.26145C35.534 9.18135 35.3111 9.1184 35.2509 9.1184C34.8231 9.1184 34.2086 9.54183 34.0941 9.90803C34.0399 10.0682 34.0459 10.1999 34.1122 10.4631C34.2206 10.8922 34.1664 11.041 33.8712 11.1554C33.6242 11.2584 33.2627 11.2412 32.8048 11.1154C32.5277 11.041 32.5036 11.041 32.2324 11.184C32.0638 11.2756 31.877 11.4415 31.7505 11.6132C31.5516 11.8936 31.5516 11.8936 31.5818 12.4142C31.6059 12.7747 31.5998 12.9521 31.5516 12.9979C31.4432 13.1009 31.2143 13.0837 30.7925 12.9464C30.2865 12.7862 30.0696 12.8262 29.684 13.1695C29.1899 13.6044 29.1056 13.8962 29.3345 14.3712C29.4791 14.6744 29.5394 14.9662 29.4852 15.1207C29.449 15.2352 29.4129 15.2409 28.7682 15.2294C27.9308 15.2123 27.7621 15.2867 27.509 15.7559C27.2982 16.1392 27.3162 16.3567 27.5813 16.7629C27.6838 16.9231 27.7681 17.0948 27.7681 17.1463C27.7681 17.255 27.4307 17.358 27.0451 17.358C26.6354 17.358 26.3704 17.4496 26.1474 17.667C25.8643 17.9417 25.8402 18.2335 26.045 18.7942C26.292 19.4751 26.28 19.498 25.6655 19.4751C24.8401 19.4408 24.7015 19.5095 24.569 19.9958C24.5027 20.2362 24.5087 20.2991 24.6232 20.5852L24.7497 20.9056H19.7612C14.351 20.9056 14.2726 20.8999 13.2786 20.5852C12.3989 20.3105 11.5555 19.87 10.7482 19.2749C9.79625 18.5768 9.20583 17.8615 8.60335 16.7114C8.39249 16.3109 8.20572 15.9847 8.18162 15.9847C8.13342 15.9847 8.06715 19.2119 8.06715 21.5694V23.4633L7.543 23.4977C6.1091 23.5949 4.9885 24.1156 3.78957 25.2543C3.47026 25.5518 2.72319 26.3644 2.13276 27.0567C1.53631 27.7491 0.813342 28.5502 0.524154 28.8362L0 29.3512L0.361485 29.6945C0.722971 30.0264 1.60861 31.0106 2.67499 32.2637C3.82572 33.6084 4.93428 34.4895 5.94643 34.8615C6.47059 35.0503 7.302 35.2105 7.77194 35.2105H8.06715V37.1102C8.06715 39.4962 8.13342 42.7063 8.18162 42.7063C8.20572 42.7063 8.36839 42.4202 8.54913 42.0654C9.03713 41.1156 9.39862 40.6235 10.0794 39.9883C11.2422 38.8897 12.7002 38.1459 14.2184 37.8712C14.6341 37.7968 15.4655 37.7854 19.7311 37.7854H24.7497L24.6232 38.1058C24.5087 38.3919 24.5027 38.4548 24.569 38.6952C24.6111 38.8382 24.7015 39.0156 24.7738 39.09C24.8883 39.2101 24.9485 39.2216 25.4847 39.2101C25.804 39.2044 26.0932 39.2159 26.1294 39.2388C26.2318 39.3017 26.2197 39.4276 26.051 39.8739C25.8643 40.3774 25.8583 40.6292 26.039 40.8752C26.274 41.2128 26.4306 41.2815 27.0632 41.333C27.3825 41.3559 27.6717 41.3959 27.7018 41.4188C27.8163 41.4818 27.7741 41.6248 27.5753 41.9281C27.3223 42.3 27.3102 42.6262 27.5512 43.0095C27.7802 43.3872 27.9729 43.4673 28.6417 43.4501C29.3948 43.4329 29.4068 43.4329 29.4671 43.5188C29.5454 43.6275 29.4791 44.0109 29.3406 44.3084C29.1056 44.7948 29.1899 45.0809 29.684 45.5215C30.0696 45.8648 30.2865 45.9048 30.7925 45.7446C30.9974 45.676 31.2384 45.6245 31.3227 45.6245C31.5878 45.6245 31.6239 45.7103 31.5878 46.2481C31.5577 46.6945 31.5637 46.7631 31.6962 46.992C31.8529 47.2724 32.3349 47.6271 32.5578 47.6271C32.6301 47.6271 32.8108 47.5871 32.9494 47.5413C33.4374 47.3754 34.0399 47.4841 34.1483 47.753C34.1784 47.8331 34.1664 48.0105 34.1122 48.2279C34.0459 48.4912 34.0399 48.6228 34.0941 48.783C34.2025 49.1435 34.8291 49.5726 35.2388 49.5726C35.287 49.5726 35.522 49.5039 35.7509 49.4296C35.9859 49.3494 36.2208 49.2865 36.2751 49.2865C36.4377 49.2865 36.5642 49.584 36.5642 49.9731C36.5642 50.5568 36.745 50.8028 37.3896 51.1118C37.7571 51.2835 37.9921 51.2663 38.3717 51.0317C39.0645 50.614 39.5766 50.8715 39.5766 51.6325C39.5766 52.1818 40.143 52.6911 40.7515 52.6911C41.0105 52.6911 41.119 52.651 41.4503 52.445C41.848 52.2047 42.107 52.1475 42.2094 52.2791C42.2396 52.3134 42.2998 52.5022 42.348 52.6911C42.4745 53.2747 42.7095 53.5608 43.1855 53.721C43.7277 53.8984 44.0349 53.8355 44.5049 53.4521C44.7157 53.2804 44.9989 53.2404 45.1134 53.3663C45.1495 53.412 45.2037 53.5722 45.2339 53.7267C45.3242 54.1616 45.3905 54.2875 45.6616 54.5049C46.0713 54.8425 46.9027 54.997 47.2823 54.8082C47.3787 54.7624 47.5474 54.6251 47.6558 54.5049C47.8968 54.2417 48.0354 54.1845 48.2101 54.276C48.3848 54.3619 48.4089 54.4019 48.5475 54.8425C48.6138 55.0485 48.7222 55.2602 48.7825 55.3117C48.9752 55.4777 49.3367 55.5864 49.7283 55.5921C50.2344 55.5978 50.4573 55.4777 50.6923 55.0542C50.9574 54.585 51.0116 54.5393 51.2285 54.585C51.5117 54.6422 51.5297 54.6823 51.4213 55.0886C51.2104 55.9011 51.5056 56.2616 52.5419 56.4389C52.9998 56.519 53.1564 56.6449 53.5179 57.24C53.6505 57.4632 53.783 57.5948 53.9758 57.6978C54.2228 57.8294 54.3072 57.8408 55 57.8408C55.6928 57.8408 55.7772 57.8294 56.0242 57.6978C56.217 57.5948 56.3495 57.4632 56.4821 57.24C56.8436 56.6449 57.0002 56.519 57.4581 56.4389C58.4944 56.2616 58.7896 55.9011 58.5787 55.0886C58.4703 54.6823 58.4883 54.6422 58.7715 54.585C58.9884 54.5393 59.0426 54.585 59.3077 55.0542C59.5427 55.4777 59.7656 55.5978 60.2717 55.5921C60.6633 55.5864 61.0248 55.4777 61.2176 55.3117C61.2778 55.2602 61.3862 55.0485 61.4525 54.8425C61.5911 54.4019 61.6152 54.3619 61.7899 54.276C61.9646 54.1845 62.1032 54.2417 62.3442 54.5049C62.4526 54.6251 62.6213 54.7624 62.7177 54.8082C63.0973 54.997 63.9287 54.8425 64.3384 54.5049C64.6095 54.2875 64.6758 54.1616 64.7661 53.7267C64.7963 53.5722 64.8505 53.412 64.8866 53.3663C65.0011 53.2404 65.2843 53.2804 65.4951 53.4521C65.9651 53.8355 66.2723 53.8984 66.8145 53.721C67.2905 53.5608 67.5255 53.2747 67.652 52.6911C67.7002 52.5022 67.7604 52.3134 67.7906 52.2791C67.893 52.1475 68.152 52.2047 68.5497 52.445C68.881 52.651 68.9895 52.6911 69.2486 52.6911C69.8571 52.6911 70.4234 52.1818 70.4234 51.6325C70.4234 50.8715 70.9355 50.614 71.6283 51.0317C72.0079 51.2663 72.2429 51.2835 72.6104 51.1118C73.255 50.8028 73.4358 50.5568 73.4358 49.9731C73.4358 49.584 73.5623 49.2865 73.7249 49.2865C73.7792 49.2865 74.0202 49.3494 74.2491 49.4296C74.4841 49.5039 74.713 49.5726 74.7612 49.5726C75.1709 49.5726 75.7975 49.1435 75.9059 48.783C75.9601 48.6228 75.9541 48.4912 75.8878 48.2279C75.8336 48.0105 75.8216 47.8331 75.8517 47.753C75.9601 47.4841 76.5626 47.3754 77.0506 47.5413C77.1892 47.5871 77.3699 47.6271 77.4422 47.6271C77.6651 47.6271 78.1471 47.2724 78.3038 46.992C78.4363 46.7631 78.4423 46.6945 78.4122 46.2481C78.3761 45.7103 78.4122 45.6245 78.6773 45.6245C78.7616 45.6245 79.0026 45.676 79.2075 45.7446C79.7136 45.9048 79.9304 45.8648 80.316 45.5215C80.8101 45.0809 80.8944 44.7948 80.6594 44.3084C80.5209 44.0109 80.4546 43.6275 80.5329 43.5188C80.5932 43.4329 80.6052 43.4329 81.3583 43.4501C82.0271 43.4673 82.2199 43.3872 82.4488 43.0095C82.6898 42.6262 82.6777 42.3 82.4307 41.9281C82.2259 41.6248 82.1837 41.4818 82.2982 41.4188C82.3283 41.3959 82.6175 41.3559 82.9368 41.333C83.5694 41.2815 83.726 41.2128 83.967 40.8752C84.1417 40.6292 84.1357 40.3774 83.949 39.8739C83.7803 39.4276 83.7682 39.3017 83.8706 39.2388C83.9068 39.2159 84.196 39.2044 84.5153 39.2101C85.0515 39.2216 85.1117 39.2101 85.2262 39.09C85.2985 39.0156 85.3889 38.8382 85.431 38.6952C85.4973 38.4548 85.4913 38.3919 85.3768 38.1058L85.2503 37.7854H90.2689C94.5345 37.7854 95.3659 37.7968 95.7816 37.8712C97.2998 38.1459 98.7578 38.8897 99.9206 39.9883C100.601 40.6235 100.963 41.1156 101.451 42.0654C101.632 42.4202 101.794 42.7063 101.818 42.7063C101.867 42.7063 101.933 39.4962 101.933 37.1102V35.2105H102.228C102.698 35.2105 103.529 35.0503 104.054 34.8615C105.066 34.4895 106.174 33.6084 107.325 32.2637C108.391 31.0106 109.277 30.0264 109.639 29.6945L110 29.3569L109.446 28.8019C109.138 28.5044 108.554 27.8578 108.138 27.3714C106.53 25.4832 106.018 24.9739 105.168 24.4017C104.373 23.8696 103.463 23.5663 102.463 23.4977L101.933 23.4633V21.5694C101.933 19.2119 101.867 15.9847 101.818 15.9847C101.794 15.9847 101.608 16.3109 101.397 16.7172C101.186 17.1177 100.897 17.6041 100.746 17.8043C99.6133 19.3149 97.6372 20.5051 95.7394 20.8198C95.3177 20.8885 94.3597 20.9056 90.2388 20.9056H85.2503L85.3768 20.5852C85.4913 20.2991 85.4973 20.2362 85.431 19.9958C85.2985 19.5095 85.1599 19.4408 84.3345 19.4751C83.72 19.498 83.708 19.4751 83.955 18.7942C84.1598 18.2335 84.1357 17.9417 83.8526 17.667C83.6296 17.4496 83.3646 17.358 82.9549 17.358C82.5693 17.358 82.2319 17.255 82.2319 17.1463C82.2319 17.0948 82.3162 16.9231 82.4187 16.7629C82.6838 16.3567 82.7018 16.1392 82.491 15.7559C82.2379 15.2867 82.0692 15.2123 81.2318 15.2294C80.5871 15.2409 80.551 15.2352 80.5148 15.1207C80.4606 14.9662 80.5209 14.6744 80.6655 14.3712C80.8944 13.8962 80.8101 13.6044 80.316 13.1695C79.9304 12.8262 79.7136 12.7862 79.2075 12.9464C78.7857 13.0837 78.5568 13.1009 78.4484 12.9979C78.4002 12.9521 78.3941 12.7747 78.4182 12.4142C78.4484 11.8936 78.4484 11.8936 78.2495 11.6132C78.123 11.4415 77.9362 11.2756 77.7676 11.184C77.4964 11.041 77.4723 11.041 77.1952 11.1154C76.7373 11.2412 76.3758 11.2584 76.1288 11.1554C75.8336 11.041 75.7794 10.8922 75.8878 10.4631C75.9541 10.1999 75.9601 10.0682 75.9059 9.90803C75.7914 9.54183 75.1769 9.1184 74.7492 9.1184C74.6889 9.1184 74.466 9.18135 74.2431 9.26145C74.0262 9.34156 73.7912 9.4045 73.731 9.4045C73.5563 9.4045 73.4538 9.13557 73.4237 8.60915C73.3936 8.12851 73.3936 8.12278 73.1526 7.92252C72.8333 7.65358 72.4176 7.45904 72.1585 7.45904C72.026 7.45904 71.8392 7.5277 71.6283 7.65931C71.2066 7.91107 70.9234 7.92252 70.6644 7.69936C70.5077 7.56776 70.4716 7.48765 70.4294 7.13861C70.3631 6.61791 70.2426 6.4062 69.8992 6.20021C69.3871 5.89122 69.0678 5.90267 68.5135 6.26315C68.1581 6.48631 67.893 6.54353 67.7906 6.41192C67.7604 6.37759 67.7002 6.18877 67.658 5.99994C67.5616 5.59368 67.5074 5.48497 67.2965 5.26753C67.0977 5.05582 66.8748 4.95282 66.5314 4.88988C66.1639 4.82122 65.9349 4.88988 65.5795 5.17026C65.2782 5.41058 65.0131 5.4678 64.8866 5.31903C64.8505 5.27898 64.7902 5.09015 64.7541 4.90705C64.6818 4.54084 64.6035 4.39207 64.3564 4.16892C64.1155 3.9572 63.4467 3.7741 63.025 3.80843C62.7117 3.83704 62.6695 3.85421 62.4044 4.12886C62.1333 4.40924 62.067 4.44929 61.8562 4.43213C61.6875 4.42068 61.5851 4.27763 61.4525 3.86565C61.3862 3.64822 61.2778 3.43078 61.2176 3.37929C61.0248 3.21335 60.6512 3.09891 60.2717 3.09891C59.7656 3.08747 59.5427 3.21335 59.2957 3.65394C59.0727 4.05448 58.9522 4.15175 58.7414 4.10025C58.4883 4.04876 58.4703 3.99726 58.5787 3.60244C58.7896 2.78993 58.4944 2.42944 57.4581 2.25206C57.0002 2.17196 56.9038 2.09757 56.5363 1.51965C56.1929 0.976068 55.9579 0.861629 55.1265 0.844463C54.7711 0.833019 54.4036 0.850185 54.2951 0.873072ZM55.9459 1.37088C56.1989 1.54826 56.3676 1.82292 56.452 2.17196C56.4941 2.34361 56.5423 2.48094 56.5604 2.48094C56.5785 2.48094 56.8014 2.50955 57.0484 2.53816C57.9461 2.6526 58.3136 2.85859 58.3136 3.25913C58.3136 3.36784 58.2052 3.71116 58.0666 4.02587C57.9341 4.3463 57.8316 4.64956 57.8437 4.70106C57.8618 4.77544 58.1088 4.82694 59.2173 4.98143C63.1876 5.53074 65.706 6.25171 68.9473 7.77375C73.9238 10.1026 78.2616 13.5186 81.6234 17.7528C82.5211 18.8858 83.2139 19.8356 83.7622 20.6596L83.9188 20.9056H83.5272H83.1416L82.5271 20.0302C79.7979 16.145 76.3698 12.8491 72.5019 10.4001C67.2122 7.04134 61.1995 5.2847 55.0422 5.2847C44.2338 5.29042 34.1905 10.6748 27.6054 19.9958L26.9608 20.9056H26.521H26.0812L26.2378 20.6596C27.9127 18.119 30.1961 15.4526 32.2927 13.5815C35.052 11.1268 37.8294 9.27862 41.0527 7.77375C44.294 6.25171 46.8124 5.53074 50.7827 4.98143C51.8912 4.82694 52.1382 4.77544 52.1563 4.70106C52.1684 4.64956 52.0659 4.3463 51.9334 4.02587C51.7948 3.71116 51.6864 3.36784 51.6864 3.25913C51.6864 2.85859 52.0539 2.6526 52.9516 2.53816C53.1986 2.50955 53.4215 2.48094 53.4516 2.48094C53.4757 2.48094 53.4938 2.44661 53.4938 2.40656C53.4938 2.20057 53.6987 1.7142 53.8613 1.53682C54.1083 1.26789 54.3011 1.22211 55.1024 1.23928C55.6748 1.25072 55.8013 1.26789 55.9459 1.37088ZM50.1983 3.488C50.3609 3.591 50.4875 3.74549 50.614 4.0087L50.8068 4.38635L51.2104 4.35202C51.5297 4.32913 51.6322 4.34058 51.6924 4.40352C51.7346 4.45501 51.7406 4.50651 51.7105 4.53512C51.6804 4.55801 51.3189 4.62095 50.9092 4.67817C49.7344 4.83266 47.9932 5.14737 46.9449 5.39914C42.4263 6.47486 37.7993 8.79225 33.7326 12.008C32.6783 12.8434 30.5274 14.8518 29.7201 15.7559C28.5031 17.1177 26.6836 19.4351 26.045 20.4421L25.7498 20.8999L25.3582 20.9056H24.9666L24.8521 20.6424C24.7196 20.3334 24.7437 19.9272 24.9124 19.7498C25.0148 19.6468 25.069 19.6354 25.5209 19.6697C26.4065 19.7383 26.533 19.5552 26.2318 18.6569C26.1474 18.4109 26.0812 18.1591 26.0812 18.0904C26.0812 18.0275 26.1896 17.873 26.3222 17.7471L26.5632 17.5125L27.0994 17.5526C27.6115 17.5926 27.6356 17.5869 27.8163 17.4438C28.0633 17.2493 28.0633 17.112 27.7982 16.6142C27.6838 16.3967 27.5874 16.1564 27.5874 16.082C27.5874 15.8875 27.9187 15.4812 28.1115 15.4354C28.2019 15.4126 28.3947 15.4297 28.5453 15.4698C28.6959 15.5098 28.9369 15.5556 29.0755 15.5728C29.3044 15.5957 29.3586 15.5728 29.5454 15.3954C29.8105 15.1436 29.8165 14.9434 29.5996 14.3254L29.437 13.8791L29.5695 13.6273C29.6418 13.4957 29.7683 13.3298 29.8587 13.2725C30.0756 13.118 30.5515 13.0952 30.9974 13.2039C31.5035 13.3298 31.642 13.3183 31.8107 13.1467C31.9433 13.0093 31.9553 12.9636 31.9372 12.4314C31.9192 11.7848 31.9915 11.5788 32.2867 11.4358C32.5096 11.3271 32.6964 11.3271 33.1121 11.4415C33.5338 11.556 33.8531 11.5216 34.1242 11.3214C34.4737 11.0753 34.5279 10.9094 34.4797 10.3028L34.4435 9.77071L34.6604 9.5876C34.9496 9.34728 35.2268 9.34156 35.6967 9.58188C36.0823 9.77071 36.257 9.77071 36.5401 9.59333C36.7631 9.456 36.8655 9.18707 36.8655 8.76364C36.8655 8.50616 36.9016 8.35166 36.986 8.22006C37.1185 8.00835 37.6668 7.68792 37.8897 7.68792C37.974 7.68792 38.215 7.79091 38.4319 7.91679C38.8717 8.17428 39.0163 8.19145 39.3778 8.03696C39.673 7.90535 39.7393 7.80808 39.7935 7.3961C39.8598 6.91545 40.1128 6.52636 40.4924 6.33754C40.7997 6.18304 41.0527 6.24026 41.4323 6.54925C41.6552 6.73807 41.9263 6.76668 42.2456 6.6408C42.5288 6.52636 42.595 6.41764 42.6493 5.99422C42.7035 5.56507 42.824 5.37625 43.1312 5.22176C43.4927 5.03293 43.8241 5.07871 44.3362 5.37053C44.8121 5.63946 44.9266 5.66807 45.1375 5.55935C45.3303 5.46208 45.3965 5.35336 45.517 4.9471C45.6436 4.49507 45.8966 4.23758 46.3364 4.1117C46.8907 3.9572 47.0051 3.98581 47.4389 4.36918C47.7823 4.67245 47.8546 4.7125 48.0715 4.7125C48.3908 4.7125 48.5415 4.56945 48.8246 4.00298C49.0777 3.488 49.2765 3.33923 49.6982 3.33923C49.891 3.33923 50.0356 3.37929 50.1983 3.488ZM60.7657 3.44795C60.8982 3.52806 61.0187 3.69399 61.1754 4.00298C61.4585 4.56945 61.6092 4.7125 61.9285 4.7125C62.1454 4.7125 62.2177 4.67245 62.5611 4.36918C62.9949 3.98581 63.1093 3.9572 63.6636 4.1117C64.1034 4.23758 64.3564 4.49507 64.483 4.9471C64.6035 5.35336 64.6697 5.46208 64.8625 5.55935C65.0734 5.66807 65.1879 5.63946 65.6638 5.37053C66.1759 5.07871 66.5073 5.03293 66.8688 5.22176C67.176 5.37625 67.2965 5.56507 67.3508 5.99422C67.405 6.41764 67.4712 6.52636 67.7544 6.6408C68.0737 6.76668 68.3448 6.73807 68.5678 6.54925C68.9473 6.24026 69.2004 6.18304 69.5076 6.33754C69.8872 6.52636 70.1402 6.91545 70.2065 7.3961C70.2607 7.80808 70.327 7.90535 70.6222 8.03696C70.9837 8.19145 71.1283 8.17428 71.5681 7.91679C71.785 7.79091 72.026 7.68792 72.1103 7.68792C72.3332 7.68792 72.8815 8.00835 73.014 8.22006C73.0984 8.35166 73.1345 8.50616 73.1345 8.76364C73.1345 9.18707 73.2369 9.456 73.4599 9.59333C73.743 9.77071 73.9177 9.77071 74.3033 9.58188C74.7733 9.34156 75.0504 9.34728 75.3396 9.5876L75.5565 9.77071L75.5203 10.3028C75.4721 10.9094 75.5263 11.0753 75.8758 11.3214C76.1469 11.5216 76.4662 11.556 76.8879 11.4415C77.3037 11.3271 77.4904 11.3271 77.7133 11.4358C78.0085 11.5788 78.0808 11.7848 78.0628 12.4314C78.0447 12.9636 78.0567 13.0093 78.1893 13.1467C78.358 13.3183 78.4966 13.3298 79.0026 13.2039C79.4485 13.0952 79.9244 13.118 80.1413 13.2725C80.2317 13.3298 80.3582 13.4957 80.4305 13.6273L80.563 13.8791L80.4004 14.3254C80.1835 14.9434 80.1895 15.1436 80.4546 15.3954C80.6414 15.5728 80.6956 15.5957 80.9245 15.5728C81.0631 15.5556 81.3041 15.5098 81.4547 15.4698C81.6053 15.4297 81.7981 15.4126 81.8885 15.4354C82.0813 15.4812 82.4126 15.8875 82.4126 16.082C82.4126 16.1564 82.3162 16.3967 82.2018 16.6142C81.9367 17.112 81.9367 17.2493 82.1837 17.4438C82.3644 17.5869 82.3885 17.5926 82.9006 17.5526L83.4369 17.5125L83.6778 17.7471C83.8104 17.873 83.9188 18.0275 83.9188 18.0904C83.9188 18.1591 83.8526 18.4109 83.7682 18.6569C83.467 19.5552 83.5935 19.7383 84.4791 19.6697C84.931 19.6354 84.9852 19.6468 85.0876 19.7498C85.2563 19.9272 85.2804 20.3334 85.1479 20.6424L85.0334 20.9056H84.6418L84.2502 20.8999L83.955 20.4421C83.3164 19.4351 81.4969 17.1177 80.2799 15.7559C79.4726 14.8518 77.3217 12.8434 76.2674 12.008C72.7791 9.24429 68.9112 7.16722 64.9529 5.91983C63.3383 5.41058 61.1513 4.9471 59.0908 4.67817C58.6811 4.62095 58.3196 4.55801 58.2895 4.53512C58.2594 4.50651 58.2654 4.45501 58.3076 4.40352C58.3678 4.34058 58.4703 4.32913 58.7896 4.35202L59.1932 4.38635L59.386 4.0087C59.615 3.54522 59.8981 3.33923 60.3018 3.33923C60.4645 3.33923 60.6512 3.38501 60.7657 3.44795ZM57.2653 6.71518C66.7362 7.42471 75.3034 12.3113 81.1715 20.3449L81.5752 20.9056H81.0691H80.563L79.9726 20.1332C74.6407 13.1524 66.9712 8.67209 58.6149 7.66503C56.6749 7.43043 53.8553 7.40182 52.0177 7.60209C47.3124 8.11134 42.9625 9.60477 38.9741 12.0824C37.0402 13.284 35.4738 14.497 33.7567 16.1221C32.2445 17.5583 31.2082 18.7141 30.0394 20.2533L29.5454 20.9056H29.0454H28.5393L28.6598 20.7225C28.726 20.6252 29.0694 20.1618 29.4249 19.6983C31.9131 16.4311 34.9255 13.6616 38.2813 11.5502C42.7517 8.72931 47.4751 7.15005 52.7106 6.72091C53.548 6.65224 56.3676 6.64652 57.2653 6.71518ZM56.7773 7.91679C61.4947 8.20289 65.9108 9.53038 70.0438 11.8993C73.743 14.0221 77.1591 17.0548 79.8461 20.6024L80.075 20.9056H75.8457H71.6103L71.2126 20.5451C69.9354 19.4065 68.2545 18.2163 66.67 17.3294C65.7903 16.843 64.001 16.0362 63.0551 15.6986C60.2174 14.6973 57.5364 14.2739 54.4879 14.3425C51.4936 14.4112 48.9029 14.9434 46.1436 16.0477C43.6433 17.049 40.9864 18.6855 39.0525 20.4135L38.5042 20.9056L34.2748 20.8942L30.0455 20.877L30.6781 20.0759C31.7444 18.7198 32.5518 17.8387 33.9977 16.4654C35.4075 15.1322 36.1967 14.4742 37.4981 13.5415C43.1734 9.49605 49.9934 7.50481 56.7773 7.91679ZM56.958 15.4126C60.7295 15.7501 64.2661 16.946 67.4712 18.9773C68.2063 19.4408 69.357 20.2705 69.7908 20.6424L70.092 20.8999L68.8208 20.9056H67.5496L67.0435 20.5451C64.1155 18.4509 60.9886 17.2207 57.4099 16.7458C56.3556 16.6084 53.7649 16.6084 52.7106 16.7458C49.1982 17.2092 46.0773 18.4223 43.2156 20.4364L42.5408 20.9056H41.2636H39.9863L40.4382 20.5394C43.1553 18.3479 46.5051 16.7114 49.885 15.9275C50.7525 15.7273 52.2105 15.4927 53.0118 15.4183C53.8312 15.3496 56.1809 15.3439 56.958 15.4126ZM57.2653 17.0433C59.7897 17.3408 62.1936 18.079 64.3625 19.2234C65.0011 19.5667 66.5314 20.5108 66.8386 20.7569L67.0194 20.8999L66.6037 20.9056C66.2301 20.9056 66.1699 20.8885 65.9108 20.7111C65.1397 20.1732 63.6214 19.3664 62.5249 18.9029C57.3798 16.7229 52.09 16.803 47.0051 19.1318C45.9508 19.6182 45.1495 20.0473 44.3241 20.5738C43.8241 20.8885 43.7819 20.9056 43.4204 20.9056H43.0469L43.553 20.5509C44.8001 19.6811 46.6979 18.6912 48.192 18.1362C49.8609 17.524 51.7888 17.1062 53.6746 16.9575C54.518 16.8888 56.3616 16.9346 57.2653 17.0433ZM8.71782 17.6269C9.75408 19.2749 12.0435 20.6767 14.2666 21.043C14.7848 21.1288 18.2972 21.1345 55 21.1345C91.7028 21.1345 95.2153 21.1288 95.7334 21.043C97.9565 20.6767 100.246 19.2749 101.282 17.6269C101.415 17.4152 101.547 17.2321 101.571 17.215C101.626 17.1864 101.722 23.4176 101.668 23.4633C101.65 23.4862 101.379 23.5778 101.071 23.675C100.288 23.9268 99.782 24.2644 99.1735 24.9396L98.9145 25.2257L98.9506 24.9968C99.0229 24.5963 99.3723 23.984 99.8844 23.3661C100.445 22.6909 100.692 22.2503 100.818 21.6724C100.927 21.1974 100.927 21.0086 100.842 20.7111C100.776 20.4936 100.499 20.1618 100.378 20.1618C100.342 20.1618 100.318 20.3277 100.324 20.5509C100.33 20.8713 100.3 21.0029 100.168 21.2604C99.8664 21.8383 99.7037 21.8726 99.3723 21.4206C99.1735 21.1459 98.9446 21.0658 98.812 21.2261C98.5831 21.5064 98.4746 21.8555 98.4505 22.3819L98.4264 22.9198L98.1312 23.0914C97.9625 23.1887 97.8179 23.3203 97.7999 23.389C97.7517 23.5778 97.9143 23.9039 98.1373 24.0641C98.4987 24.3102 98.5108 24.3788 98.4626 25.7864C98.4325 26.8336 98.4445 27.1311 98.5228 27.4801C98.6494 28.0638 98.8964 28.533 99.3 28.9679L99.6374 29.3398L99.3844 29.6144C99.0169 30.015 98.7578 30.4384 98.6012 30.8618C98.4807 31.2109 98.4686 31.3367 98.4686 32.7501C98.4686 33.5855 98.4445 34.3064 98.4204 34.3579C98.3903 34.4094 98.2698 34.5296 98.1433 34.6269C97.8842 34.8271 97.7456 35.0903 97.7999 35.2906C97.824 35.3764 97.9505 35.4966 98.1312 35.5996L98.4264 35.7713L98.4505 36.3091C98.4746 36.8355 98.5831 37.1846 98.812 37.465C98.9446 37.6309 99.1554 37.5393 99.4205 37.2132C99.541 37.053 99.6856 36.9271 99.7338 36.9271C99.782 36.9271 99.8844 37.0129 99.9688 37.1159C100.228 37.4363 100.324 37.7282 100.324 38.1401C100.318 38.3633 100.342 38.5292 100.378 38.5292C100.499 38.5292 100.776 38.1974 100.842 37.9799C100.927 37.6824 100.927 37.4936 100.818 37.0186C100.686 36.435 100.439 35.983 99.8905 35.3249C99.6193 35.0045 99.3241 34.5983 99.2277 34.4209C99.0711 34.1176 98.8904 33.5626 98.9325 33.5168C98.9446 33.5054 99.0892 33.6484 99.2518 33.8315C99.8242 34.4609 100.409 34.8214 101.24 35.0675L101.662 35.1933L101.674 35.9315C101.686 36.3377 101.674 37.7625 101.644 39.0957L101.601 41.5218L101.228 40.9782C100.077 39.3017 97.9445 38.0143 95.7033 37.6423C95.2273 37.5679 90.9015 37.5565 54.9639 37.5565C15.6764 37.5565 14.7426 37.5565 14.1642 37.6652C11.9531 38.0715 9.89867 39.3303 8.77205 40.9782L8.39851 41.5218L8.35634 39.0957C8.32621 37.7625 8.31416 36.3377 8.32621 35.9315L8.33826 35.1933L8.76 35.0675C9.59141 34.8214 10.1758 34.4609 10.7482 33.8315C10.9108 33.6484 11.0554 33.5054 11.0675 33.5168C11.1097 33.5626 10.9289 34.1176 10.7723 34.4209C10.6759 34.5983 10.3807 35.0045 10.1095 35.3249C9.56129 35.983 9.31427 36.435 9.18173 37.0186C9.07328 37.4936 9.07328 37.6824 9.15763 37.9799C9.2239 38.1974 9.50104 38.5292 9.62154 38.5292C9.65768 38.5292 9.68178 38.3633 9.67576 38.1401C9.67576 37.7282 9.77215 37.4363 10.0312 37.1159C10.1156 37.0129 10.218 36.9271 10.2662 36.9271C10.3144 36.9271 10.459 37.053 10.5795 37.2132C10.8446 37.5393 11.0554 37.6309 11.188 37.465C11.4169 37.1846 11.5254 36.8355 11.5495 36.3091L11.5736 35.7713L11.8688 35.5996C12.0555 35.4909 12.176 35.3764 12.2001 35.2849C12.2544 35.0961 12.0977 34.7928 11.8567 34.6269C11.5013 34.3808 11.4892 34.3122 11.5374 32.9046C11.5675 31.8574 11.5555 31.5599 11.4772 31.2109C11.3446 30.6272 11.1036 30.158 10.7 29.7174C10.3144 29.3054 10.3084 29.397 10.7964 28.8706C11.0976 28.5502 11.3567 28.018 11.4772 27.4801C11.5555 27.1311 11.5675 26.8336 11.5374 25.7864C11.4892 24.3788 11.5013 24.3102 11.8627 24.0641C12.0857 23.9039 12.2483 23.5778 12.2001 23.389C12.1821 23.3203 12.0375 23.1887 11.8688 23.0914L11.5736 22.9198L11.5495 22.3819C11.5254 21.8555 11.4169 21.5064 11.188 21.2261C11.0554 21.0658 10.8265 21.1459 10.6277 21.4206C10.2963 21.8726 10.1336 21.8383 9.8324 21.2604C9.69986 21.0029 9.66973 20.8713 9.67576 20.5509C9.68178 20.3277 9.65768 20.1618 9.62154 20.1618C9.50104 20.1618 9.2239 20.4936 9.15763 20.7111C9.07328 21.0086 9.07328 21.1974 9.18173 21.6724C9.30825 22.2503 9.55526 22.6909 10.1156 23.3661C10.6277 23.984 10.9771 24.5963 11.0494 24.9968L11.0856 25.2257L10.8265 24.9396C10.218 24.2644 9.71191 23.9268 8.92869 23.675C8.62143 23.5778 8.35031 23.4862 8.33224 23.4633C8.27802 23.4176 8.37441 17.1864 8.42863 17.215C8.45273 17.2321 8.58528 17.4152 8.71782 17.6269ZM55.6808 17.9989C55.976 18.1362 56.1447 18.4681 56.1447 18.9029C56.1447 19.2806 56.0845 19.5438 55.8314 20.3163L55.6447 20.9056H55H54.3614L54.1385 20.2304C53.6987 18.9087 53.7469 18.2678 54.3072 17.9703C54.6325 17.8043 55.2952 17.8158 55.6808 17.9989ZM52.2648 18.2506C52.8492 18.5138 53.548 19.6411 53.8191 20.7454L53.8553 20.9056H52.9275H51.9997L51.7165 20.4421C51.1743 19.5667 50.9514 18.7885 51.1442 18.4452C51.2948 18.1763 51.8732 18.0733 52.2648 18.2506ZM58.6149 18.2449C58.8498 18.3594 58.9161 18.4967 58.9161 18.8572C58.9101 19.2234 58.6872 19.7956 58.2835 20.4421L58.0003 20.9056H57.0725H56.1447L56.1809 20.7454C56.4459 19.6468 57.1448 18.5253 57.7232 18.2564C57.9762 18.1362 58.3859 18.1305 58.6149 18.2449ZM49.9452 18.9201C50.2766 19.086 50.6501 19.5266 51.102 20.2705C51.2888 20.5852 51.4454 20.8598 51.4454 20.877C51.4454 20.8942 51.0176 20.9056 50.4875 20.9056H49.5295L49.2524 20.5966C48.6559 19.9329 48.3848 19.4351 48.4571 19.1547C48.5475 18.8114 49.4452 18.6683 49.9452 18.9201ZM61.2477 18.9029C61.5429 19.0288 61.6152 19.1948 61.5067 19.5037C61.4224 19.7498 61.1272 20.1732 60.7476 20.5966L60.4705 20.9056H59.5125C58.9824 20.9056 58.5546 20.8942 58.5546 20.877C58.5546 20.8598 58.7113 20.5852 58.904 20.2705C59.5788 19.149 60.0005 18.7885 60.6572 18.7885C60.8561 18.7885 61.0971 18.8343 61.2477 18.9029ZM47.704 19.7155C47.9751 19.8356 48.7825 20.5623 48.915 20.7912C48.9813 20.9056 48.9692 20.9056 47.698 20.8942L46.4147 20.877L46.3786 20.6481C46.3003 20.2133 46.4991 19.7784 46.8365 19.6468C47.0594 19.5552 47.4269 19.5896 47.704 19.7155ZM63.3804 19.8013C63.5913 19.9958 63.6817 20.322 63.6214 20.6481L63.5853 20.877L62.302 20.8942C60.8018 20.9113 60.8561 20.9571 61.5851 20.259C62.1333 19.7326 62.4466 19.5724 62.8804 19.6067C63.1394 19.6239 63.2358 19.664 63.3804 19.8013ZM8.39851 23.9669C9.69986 24.2244 10.7662 25.2371 10.9711 26.4216C11.0675 26.9594 10.9651 27.5603 10.6939 28.0867C10.4349 28.5788 10.1457 28.8534 9.58539 29.1338L9.15161 29.3512L9.52514 29.5229C10.3927 29.9063 10.8928 30.6101 10.9892 31.5885C11.0976 32.6413 10.5373 33.6599 9.50707 34.295C8.94074 34.644 8.41056 34.7756 7.64542 34.7756C6.68748 34.7699 6.06693 34.5868 5.19334 34.0318C4.51857 33.6084 3.77752 32.8931 2.49425 31.434C1.8978 30.7588 1.22905 30.0207 1.00613 29.7975C0.777194 29.5744 0.596451 29.3684 0.596451 29.3455C0.596451 29.3226 0.777194 29.1166 1.00613 28.8935C1.22905 28.6703 1.8978 27.9322 2.49425 27.257C3.0907 26.5818 3.83175 25.7864 4.13901 25.5004C5.5247 24.1957 6.95257 23.6808 8.39851 23.9669ZM103.078 23.9611C104.029 24.1214 104.927 24.6192 105.861 25.5004C106.168 25.7864 106.909 26.5818 107.506 27.257C108.102 27.9322 108.771 28.6703 109 28.8935C109.223 29.1166 109.404 29.3226 109.404 29.3455C109.404 29.3684 109.223 29.5744 108.994 29.7975C108.771 30.0207 108.102 30.7588 107.506 31.434C105.56 33.6484 104.674 34.335 103.361 34.6784C102.8 34.8214 101.836 34.81 101.3 34.6555C99.8543 34.2263 98.8723 32.916 99.0108 31.5885C99.1072 30.6101 99.6073 29.9063 100.475 29.5229L100.848 29.3512L100.415 29.1338C99.8543 28.8534 99.5651 28.5788 99.3061 28.0867C98.7337 26.9823 98.9687 25.7292 99.9085 24.8366C100.728 24.0584 101.842 23.7494 103.078 23.9611ZM26.051 38.2546C26.7258 39.3017 28.5875 41.6763 29.7261 42.9351C33.2506 46.849 38.3476 50.3107 43.312 52.1646C45.6857 53.0515 48.1318 53.6466 50.9032 54.0128C51.3189 54.0701 51.6804 54.133 51.7105 54.1559C51.7406 54.1845 51.7346 54.236 51.6924 54.2875C51.6322 54.3504 51.5297 54.3619 51.2104 54.339L50.8068 54.3047L50.614 54.6823C50.385 55.1458 50.1019 55.3518 49.6982 55.3518C49.2765 55.3518 49.0777 55.203 48.8246 54.688C48.5415 54.1216 48.3908 53.9785 48.0715 53.9785C47.8546 53.9785 47.7823 54.0186 47.4389 54.3218C46.9991 54.7109 46.8726 54.7395 46.3183 54.5679C45.8604 54.4248 45.6556 54.2017 45.4929 53.6752C45.3785 53.309 45.3303 53.2232 45.1796 53.1488C44.9206 53.0229 44.8242 53.0401 44.3663 53.3033C43.8663 53.5837 43.5048 53.6409 43.1674 53.4921C42.8541 53.3491 42.7035 53.1202 42.6493 52.6853C42.595 52.2734 42.5288 52.1646 42.2456 52.0502C41.9263 51.9243 41.6552 51.9529 41.4323 52.1418C41.0527 52.4507 40.7997 52.508 40.4924 52.3535C40.1128 52.1646 39.8598 51.7756 39.7935 51.2949C39.7393 50.8886 39.679 50.7971 39.3959 50.6598C39.0525 50.4938 38.8838 50.5167 38.4199 50.7799C37.9439 51.0546 37.7873 51.0546 37.3294 50.7742C36.9739 50.5625 36.8655 50.3565 36.8655 49.9159C36.8655 49.5039 36.757 49.2293 36.5401 49.0977C36.257 48.9203 36.0823 48.9203 35.6967 49.1091C35.2087 49.3552 34.9315 49.3494 34.6544 49.0862L34.4375 48.8802L34.4797 48.3767C34.5279 47.7874 34.4676 47.6157 34.1242 47.3639C33.8531 47.1694 33.4735 47.1236 33.094 47.2495C32.7385 47.3639 32.5096 47.3639 32.2867 47.2552C31.9915 47.1122 31.9192 46.9062 31.9372 46.2596C31.9553 45.7274 31.9433 45.6817 31.8107 45.5443C31.642 45.3727 31.5035 45.3612 30.9974 45.4871C30.4431 45.6245 30.0455 45.573 29.7864 45.3384C29.455 45.0351 29.4189 44.852 29.5996 44.3485C29.8165 43.7534 29.8105 43.5474 29.5454 43.2956C29.3526 43.1125 29.3104 43.0954 29.0514 43.124C28.8887 43.1411 28.6537 43.1869 28.5152 43.2212C28.3826 43.2613 28.2019 43.2785 28.1115 43.2556C27.9187 43.2098 27.5874 42.8035 27.5874 42.609C27.5874 42.5346 27.6838 42.2943 27.7982 42.0768C28.0633 41.579 28.0633 41.4417 27.8163 41.2472C27.6356 41.1041 27.6115 41.0984 27.0994 41.1384L26.5632 41.1785L26.3222 40.9439C26.1896 40.818 26.0812 40.6635 26.0812 40.6006C26.0812 40.5319 26.1474 40.2802 26.2318 40.0341C26.533 39.1358 26.4065 38.9527 25.5209 39.0213C25.069 39.0557 25.0148 39.0442 24.9124 38.9412C24.7437 38.7638 24.7196 38.3576 24.8521 38.0486L24.9666 37.7854H25.3582L25.7498 37.7911L26.051 38.2546ZM27.5512 38.4777C30.5636 42.8608 34.8833 46.7688 39.4501 49.2522C43.565 51.4952 47.8064 52.7712 52.5299 53.1832C53.5842 53.2804 56.5484 53.2747 57.5906 53.1832C64.73 52.548 70.9837 49.8988 76.5686 45.1381C78.6893 43.33 81.045 40.7036 82.6416 38.369L83.0392 37.7854H83.479H83.9249L83.7019 38.1115C82.7862 39.4848 81.3041 41.3959 80.2799 42.5289C76.3337 46.9004 71.2307 50.3107 65.8325 52.199C63.7479 52.9314 62.1695 53.2919 59.3981 53.681C58.1208 53.8583 57.8618 53.9098 57.8437 53.9899C57.8316 54.0414 57.9341 54.3447 58.0666 54.6651C58.2052 54.9798 58.3136 55.3232 58.3136 55.4319C58.3136 55.8324 57.9461 56.0384 57.0484 56.1528C56.8014 56.1815 56.5785 56.2101 56.5544 56.2101C56.5243 56.2101 56.5062 56.2444 56.5062 56.2844C56.5062 56.4904 56.3013 56.9768 56.1447 57.1427C55.9218 57.3831 55.6266 57.4689 55 57.4689C54.3734 57.4689 54.0782 57.3831 53.8553 57.1427C53.6987 56.9768 53.4938 56.4904 53.4938 56.2844C53.4938 56.2444 53.4757 56.2101 53.4516 56.2101C53.4215 56.2101 53.1986 56.1815 52.9516 56.1528C52.0539 56.0384 51.6864 55.8324 51.6864 55.4319C51.6864 55.3232 51.7948 54.9798 51.9334 54.6651C52.0659 54.3447 52.1684 54.0414 52.1563 53.9899C52.1382 53.9098 51.8792 53.8583 50.6019 53.681C49.7585 53.5608 48.7825 53.412 48.433 53.3434C41.5829 52.0502 34.7568 48.1021 29.7201 42.5289C28.6959 41.3959 27.2138 39.4848 26.2981 38.1115L26.0751 37.7854H26.5752L27.0753 37.7911L27.5512 38.4777ZM30.2021 38.5063C34.5279 44.2455 40.9322 48.5198 47.7402 50.202C50.3127 50.8429 52.3371 51.0832 55.0904 51.0832C57.0785 51.0775 58.0365 51.0088 59.874 50.7113C66.923 49.5898 73.4538 45.922 78.4544 40.2802C78.9785 39.6851 80.0991 38.3004 80.3642 37.9113C80.4486 37.7911 80.4907 37.7797 80.9547 37.7968L81.4547 37.814L81.0812 38.329C79.828 40.0513 78.6532 41.3673 76.906 43.021C74.0925 45.6874 71.5862 47.404 68.2243 48.9718C64.8023 50.5682 61.7297 51.4036 57.7714 51.8156C56.8315 51.9129 53.3311 51.9129 52.3491 51.8156C51.9334 51.7756 51.2285 51.6897 50.7827 51.6268C42.2335 50.4481 34.4014 45.6588 29.0152 38.3232C28.8285 38.0658 28.6718 37.8426 28.6718 37.8197C28.6718 37.8025 28.8947 37.7854 29.1719 37.7911H29.6659L30.2021 38.5063ZM39.4079 38.4491C43.318 41.7106 47.7462 43.5989 52.7708 44.1482C53.8071 44.2569 56.5002 44.2397 57.5906 44.1139C62.537 43.5474 66.8567 41.6649 70.821 38.3461L71.4958 37.7854L75.7252 37.7968L79.9545 37.814L79.4183 38.5006C77.3458 41.1556 74.8094 43.5302 72.0139 45.4299C65.8024 49.647 58.3919 51.4151 51.0538 50.4252C43.1132 49.3494 35.781 45.0408 30.6118 38.4034C30.3708 38.1001 30.178 37.8369 30.178 37.8197C30.178 37.8025 32.0758 37.7854 34.3953 37.7854H38.6127L39.4079 38.4491ZM43.4626 38.2946C47.6438 41.1442 52.4576 42.3687 57.3195 41.8136C60.7416 41.4245 64.1155 40.1142 66.9832 38.06L67.3688 37.7854H68.6702H69.9715L69.7366 37.9685C66.447 40.5777 62.6876 42.2771 58.8257 42.9065C57.3195 43.1526 56.7833 43.1926 55.0301 43.1926C53.771 43.1869 53.1263 43.164 52.4997 43.0839C48.2041 42.5632 44.3 40.9725 40.8599 38.3404C40.4864 38.06 40.1791 37.814 40.1791 37.8025C40.1791 37.7968 40.7515 37.7854 41.4443 37.7854H42.7155L43.4626 38.2946ZM44.3241 38.1173C48.7644 40.9439 53.8011 41.9681 58.5667 41.0126C61.0127 40.5205 63.4166 39.5535 65.5915 38.1802C66.194 37.8025 66.2422 37.7797 66.5314 37.7968L66.8386 37.814L66.3687 38.1287C63.5311 40.0341 60.4705 41.1613 57.1388 41.5333C56.1025 41.6477 54.0119 41.6477 52.9516 41.5275C50.6622 41.2815 48.5053 40.6578 46.3786 39.6393C45.4809 39.2101 44.3061 38.535 43.6132 38.0543L43.2276 37.7854H43.5108C43.7638 37.7854 43.8663 37.8312 44.3241 38.1173ZM48.8427 37.9685C48.5897 38.3118 47.9812 38.8497 47.704 38.9755C47.222 39.1987 46.722 39.0957 46.4689 38.7295C46.3665 38.575 46.3244 37.9799 46.4147 37.8483C46.4388 37.8083 46.8786 37.7854 47.7161 37.7854H48.9813L48.8427 37.9685ZM51.4454 37.814C51.4454 37.8312 51.2888 38.1058 51.102 38.4205C50.4212 39.542 49.9995 39.9025 49.3428 39.9025C48.909 39.8968 48.5113 39.7366 48.4571 39.5363C48.3848 39.2559 48.6318 38.8039 49.2102 38.1401L49.5235 37.7854H50.4814C51.0116 37.7854 51.4454 37.7968 51.4454 37.814ZM53.8191 37.9399C53.548 39.0442 52.8371 40.1829 52.2648 40.4404C51.8732 40.6177 51.2948 40.5205 51.1442 40.2515C50.9514 39.9025 51.1743 39.1243 51.7165 38.2489L51.9997 37.7854H52.9275H53.8553L53.8191 37.9399ZM55.8314 38.369C56.0845 39.1472 56.1447 39.4104 56.1447 39.7881C56.1447 40.5033 55.7772 40.8237 54.9699 40.8237C53.8071 40.8237 53.5661 40.1485 54.1324 38.4663L54.3614 37.7854H55H55.6447L55.8314 38.369ZM58.2835 38.2489C58.8257 39.1243 59.0486 39.9025 58.8558 40.2515C58.7052 40.5205 58.1269 40.6177 57.7352 40.4404C57.1629 40.1829 56.452 39.0442 56.1809 37.9399L56.1447 37.7854H57.0725H58.0003L58.2835 38.2489ZM60.7898 38.1401C61.3682 38.8039 61.6152 39.2559 61.5429 39.5363C61.4887 39.7366 61.091 39.8968 60.6572 39.9025C60.0005 39.9025 59.5788 39.542 58.904 38.4205C58.7113 38.1058 58.5546 37.8312 58.5546 37.814C58.5546 37.7968 58.9884 37.7854 59.5186 37.7854H60.4765L60.7898 38.1401ZM63.5853 37.8483C63.6757 37.9799 63.6335 38.575 63.5311 38.7295C63.278 39.0957 62.778 39.1987 62.296 38.9755C62.0188 38.8497 61.4103 38.3118 61.1573 37.9685L61.0187 37.7854H62.2839C63.1214 37.7854 63.5612 37.8083 63.5853 37.8483ZM85.1479 38.0486C85.2804 38.3576 85.2563 38.7638 85.0876 38.9412C84.9852 39.0442 84.931 39.0557 84.4791 39.0213C83.5935 38.9527 83.467 39.1358 83.7682 40.0341C83.8526 40.2802 83.9188 40.5319 83.9188 40.6006C83.9188 40.6635 83.8104 40.818 83.6778 40.9439L83.4369 41.1785L82.9006 41.1384C82.3885 41.0984 82.3644 41.1041 82.1837 41.2472C81.9367 41.4417 81.9367 41.579 82.2018 42.0768C82.3162 42.2943 82.4126 42.5346 82.4126 42.609C82.4126 42.8035 82.0813 43.2098 81.8885 43.2556C81.7981 43.2785 81.6174 43.2613 81.4848 43.2212C81.3463 43.1869 81.1113 43.1411 80.9486 43.124C80.6896 43.0954 80.6474 43.1125 80.4546 43.2956C80.1895 43.5474 80.1835 43.7534 80.4004 44.3485C80.5811 44.852 80.545 45.0351 80.2136 45.3384C79.9545 45.573 79.5569 45.6245 79.0026 45.4871C78.4966 45.3612 78.358 45.3727 78.1893 45.5443C78.0567 45.6817 78.0447 45.7274 78.0628 46.2596C78.0808 46.9062 78.0085 47.1122 77.7133 47.2552C77.4904 47.3639 77.2615 47.3639 76.906 47.2495C76.5265 47.1236 76.1469 47.1694 75.8758 47.3639C75.5324 47.6157 75.4721 47.7874 75.5203 48.3767L75.5625 48.8802L75.3456 49.0862C75.0685 49.3494 74.7913 49.3552 74.3033 49.1091C73.9177 48.9203 73.743 48.9203 73.4599 49.0977C73.243 49.2293 73.1345 49.5039 73.1345 49.9159C73.1345 50.3565 73.0261 50.5625 72.6706 50.7742C72.2127 51.0546 72.0561 51.0546 71.5801 50.7799C71.1162 50.5167 70.9475 50.4938 70.6041 50.6598C70.321 50.7971 70.2607 50.8886 70.2065 51.2949C70.1402 51.7756 69.8872 52.1646 69.5076 52.3535C69.2004 52.508 68.9473 52.4507 68.5678 52.1418C68.3448 51.9529 68.0737 51.9243 67.7544 52.0502C67.4712 52.1646 67.405 52.2734 67.3508 52.6853C67.2965 53.1202 67.1459 53.3491 66.8326 53.4921C66.4952 53.6409 66.1338 53.5837 65.6337 53.3033C65.1758 53.0401 65.0794 53.0229 64.8204 53.1488C64.6697 53.2232 64.6215 53.309 64.5071 53.6752C64.3444 54.2017 64.1396 54.4248 63.6817 54.5679C63.1274 54.7395 63.0009 54.7109 62.5611 54.3218C62.2177 54.0186 62.1454 53.9785 61.9285 53.9785C61.6092 53.9785 61.4585 54.1216 61.1754 54.688C60.9223 55.203 60.7235 55.3518 60.3018 55.3518C59.8981 55.3518 59.615 55.1458 59.386 54.6823L59.1932 54.3047L58.7896 54.339C58.4703 54.3619 58.3678 54.3504 58.3076 54.2875C58.2654 54.236 58.2594 54.1845 58.2895 54.1559C58.3196 54.133 58.6811 54.0701 59.0968 54.0128C64.0251 53.3605 68.1641 51.9243 72.3513 49.4067C75.2191 47.6786 78.1712 45.2697 80.2739 42.9351C81.4125 41.6763 83.2742 39.3017 83.949 38.2546L84.2502 37.7911L84.6418 37.7854H85.0334L85.1479 38.0486Z" fill="black"/>
<path d="M54.7637 2.17073C54.5468 2.34243 54.5287 2.4798 54.6974 2.85183C54.8722 3.2353 54.8541 3.34977 54.6553 3.138C54.3902 2.8461 54.1492 2.70874 53.9082 2.70874C53.5347 2.70874 53.2515 3.02353 53.4202 3.2582C53.4443 3.29254 53.5949 3.40128 53.7516 3.50431C54.0588 3.70463 54.101 3.80193 53.8118 3.66457C53.2816 3.40128 52.8599 3.4528 52.7153 3.78476C52.5587 4.14534 52.6069 4.16823 53.3479 4.14534C53.9323 4.12817 54.0528 4.14534 54.3119 4.24836C54.4745 4.31705 54.6974 4.45441 54.8059 4.55171L54.9987 4.73486L55.1975 4.55171C55.2999 4.45441 55.5228 4.31705 55.6855 4.24836C55.9446 4.14534 56.0651 4.12817 56.6495 4.14534C57.3905 4.16823 57.4387 4.14534 57.2821 3.78476C57.1375 3.4528 56.7157 3.40128 56.1856 3.66457C55.8964 3.80193 55.9385 3.70463 56.2458 3.50431C56.4024 3.40128 56.5531 3.29254 56.5772 3.2582C56.7459 3.02353 56.4627 2.70874 56.0892 2.70874C55.8482 2.70874 55.6072 2.8461 55.3421 3.138C55.1493 3.34977 55.1312 3.25247 55.2999 2.83466C55.3662 2.66867 55.4204 2.48552 55.4204 2.42829C55.4204 2.32526 55.1071 2.02192 54.9987 2.02192C54.9686 2.02192 54.8661 2.0906 54.7637 2.17073ZM55.1915 3.77904C55.4264 3.99081 55.4144 4.12245 55.1794 3.95646L54.9987 3.83055L54.8179 3.95646C54.589 4.11672 54.5769 4.00225 54.7999 3.78476C54.8902 3.69891 54.9746 3.6245 54.9927 3.6245C55.0107 3.6245 55.1011 3.69318 55.1915 3.77904Z" fill="black"/>
<path d="M13.0078 25.0195V27.354L13.2548 27.3941C13.8453 27.4856 14.4116 27.909 14.6887 28.4583C14.9116 28.9104 14.9418 29.6085 14.749 30.0834C14.514 30.6842 13.8754 31.2049 13.2548 31.2964L13.0078 31.3365V33.6424V35.9541H55.0004H96.9929V33.6424V31.3365L96.7459 31.2964C96.1254 31.2049 95.4867 30.6842 95.2518 30.0834C95.059 29.6085 95.0891 28.9104 95.312 28.4583C95.5891 27.909 96.1555 27.4856 96.7459 27.3941L96.9929 27.354V25.0195V22.6792H55.0004H13.0078V25.0195ZM96.0892 25.1797L96.0832 26.7704L95.788 26.9077C95.6253 26.9821 95.3421 27.1824 95.1674 27.3483C94.2336 28.2295 94.0287 29.5856 94.6553 30.7014C94.8722 31.0904 95.4807 31.6569 95.8422 31.8114L96.0892 31.9144V33.5051V35.0958H55.0004H13.9115V33.5051V31.9144L14.1585 31.8114C14.52 31.6569 15.1285 31.0904 15.3454 30.7014C15.972 29.5856 15.7672 28.2295 14.8333 27.3483C14.6586 27.1824 14.3754 26.9821 14.2128 26.9077L13.9176 26.7704L13.9115 25.1797V23.5947H55.0004H96.0892V25.1797Z" fill="black"/>
<path d="M20.4 25.5631C20.147 25.6489 19.9602 25.792 19.8578 25.9694C19.8156 26.0438 19.7915 26.9993 19.7855 28.859C19.7795 31.8058 19.7735 31.8344 19.4782 32.212C19.1951 32.5725 18.5203 32.7041 18.0444 32.4924C17.5925 32.2864 17.2973 31.6856 17.478 31.3366C17.5564 31.1878 17.5865 31.1764 17.8696 31.1935C18.1287 31.205 18.195 31.1878 18.2492 31.0962C18.3576 30.9017 18.3215 30.6385 18.1588 30.4897C17.9841 30.3181 17.8214 30.3123 17.4961 30.4554C16.6225 30.8388 16.5683 31.9202 17.3816 32.6355C17.7431 32.9502 18.1046 33.0989 18.6288 33.1333C19.6108 33.2019 20.641 32.7098 20.9844 32.006C21.1049 31.7543 21.111 31.657 21.129 28.653L21.1471 25.5574L20.9543 25.5173C20.7013 25.4716 20.6711 25.4773 20.4 25.5631Z" fill="black"/>
<path d="M23.3584 25.5172C23.256 25.5458 23.25 25.7289 23.25 28.2752C23.25 29.8487 23.2741 31.1647 23.3102 31.3765C23.4368 32.126 23.8224 32.641 24.455 32.9042C25.0213 33.1331 26.2624 33.2132 26.9914 33.0702C27.9373 32.8756 28.4614 32.4121 28.7566 31.4966C28.8651 31.1476 28.8771 30.9244 28.9012 28.5498C28.9133 27.1308 28.9072 25.8891 28.8831 25.7861C28.841 25.5801 28.6723 25.46 28.4915 25.5115C28.371 25.5458 28.371 25.6145 28.371 28.2008C28.371 29.9517 28.3469 30.9588 28.3048 31.159C28.0999 32.0803 27.5276 32.5151 26.407 32.6124C25.5575 32.6868 25.0153 32.3835 24.7923 31.7026C24.6176 31.1647 24.5815 30.5754 24.5754 28.3267C24.5754 25.8719 24.5754 25.8834 24.1959 25.6602C23.985 25.5401 23.5512 25.4657 23.3584 25.5172Z" fill="black"/>
<path d="M37.1186 25.5976C36.1366 25.8493 35.4257 26.4101 34.9979 27.2684C34.6906 27.8864 34.5762 28.4471 34.5762 29.3455C34.5762 30.6558 34.8955 31.5656 35.6124 32.2694C36.7993 33.4424 39.0285 33.5339 40.2696 32.4525C40.613 32.1549 40.6672 32.0119 40.5106 31.8116C40.4262 31.7086 40.4081 31.7201 40.0467 32.0348C39.8418 32.2179 39.4924 32.4467 39.2755 32.544C38.914 32.71 38.8357 32.7214 38.2513 32.7214C37.6789 32.7214 37.5825 32.7042 37.2753 32.5612C36.721 32.3037 36.3655 31.8116 36.1306 30.9877C35.9558 30.3697 35.9076 28.573 36.0462 27.9436C36.239 27.0738 36.721 26.3929 37.3355 26.1011C37.5765 25.9867 37.709 25.9695 38.2513 25.9695C38.8357 25.9695 38.914 25.9809 39.2936 26.1526C39.5345 26.2613 39.8478 26.473 40.0647 26.6619C40.4081 26.9766 40.4262 26.9823 40.5106 26.8793C40.6612 26.6905 40.613 26.5417 40.3178 26.2785C39.7032 25.7349 39.1791 25.5404 38.2211 25.506C37.691 25.4889 37.4681 25.506 37.1186 25.5976Z" fill="black"/>
<path d="M82.7126 25.5686C81.4594 25.8375 80.5437 26.7358 80.2002 28.029C80.0556 28.5897 80.0556 30.1003 80.2002 30.6611C80.6461 32.3376 81.9836 33.2817 83.797 33.1902C84.6766 33.1444 85.5502 32.7839 85.9961 32.2804C86.1768 32.0801 86.1828 32.0057 86.0322 31.8284L85.9177 31.691L85.5502 32.0229C85.0441 32.4864 84.526 32.7038 83.8874 32.7382C83.1403 32.7782 82.7849 32.6581 82.321 32.2175C81.9173 31.8341 81.7607 31.5251 81.5799 30.7755C81.4353 30.169 81.4413 28.275 81.5859 27.7715C81.8269 26.9475 82.2246 26.4097 82.8029 26.1236C83.0379 26.0091 83.2186 25.9691 83.6223 25.9519C84.4356 25.9119 84.9116 26.095 85.5623 26.6786L85.9177 26.999L86.0322 26.8617C86.0925 26.7873 86.1467 26.6958 86.1467 26.6557C86.1467 26.4211 85.4177 25.8947 84.7851 25.6715C84.2549 25.4884 83.303 25.4427 82.7126 25.5686Z" fill="black"/>
<path d="M31.1828 25.5804C31.1587 25.5975 31.1406 27.1939 31.1406 29.1222V32.6298L31.3274 32.8358C31.5383 33.059 31.8395 33.1677 32.195 33.1391L32.4359 33.1219L32.454 29.5686C32.4661 26.1011 32.4661 26.0095 32.3456 25.8722C32.2793 25.7921 32.1347 25.6834 32.0202 25.6319C31.8154 25.5403 31.2611 25.506 31.1828 25.5804Z" fill="black"/>
<path d="M43.0418 25.6087C43.0237 25.6487 43.0177 27.3539 43.0237 29.4023L43.0418 33.1216H44.9336H46.8254L46.8856 32.9556C46.9278 32.8355 46.9218 32.784 46.8615 32.7439C46.8133 32.7153 46.2289 32.6924 45.5602 32.6924H44.3371V30.5868V28.4754L45.4638 28.4353C46.1325 28.4124 46.6205 28.3724 46.6687 28.338C46.7109 28.3037 46.747 28.2121 46.747 28.1378V28.0004H45.5421H44.3371V27.0048V26.0149L45.5782 25.9863C46.7109 25.9634 46.8314 25.952 46.9037 25.8547C46.9519 25.7975 46.988 25.7002 46.988 25.643C46.988 25.5457 46.8796 25.54 45.03 25.54C43.5178 25.54 43.0599 25.5572 43.0418 25.6087Z" fill="black"/>
<path d="M52.2707 25.5807C52.2466 25.5979 52.2285 27.1943 52.2285 29.1226V32.6245L52.3852 32.8076C52.6081 33.0593 52.837 33.1509 53.2226 33.1509H53.554V32.1781V31.2054H54.042C55.518 31.2054 56.6627 30.3929 57.0182 29.1055C57.1327 28.6878 57.1327 27.9439 57.0182 27.5262C56.7411 26.5249 55.9277 25.7867 54.8854 25.5979C54.53 25.535 52.3309 25.5178 52.2707 25.5807ZM55.259 26.1987C55.8434 26.4734 56.229 26.954 56.4157 27.6406C56.6627 28.5504 56.3615 29.6033 55.6928 30.1583C55.1867 30.5817 54.3492 30.8278 53.7709 30.7248L53.554 30.6847V28.373C53.554 26.2216 53.56 26.0614 53.6624 26.0328C53.7166 26.0213 54.0239 26.0099 54.3372 26.0213C54.8312 26.0328 54.9577 26.0557 55.259 26.1987Z" fill="black"/>
<path d="M60.8854 25.6608C60.8071 25.781 60.4034 26.9254 59.578 29.3858L59.3913 29.9466H58.9756C58.5659 29.9466 58.5538 29.9523 58.5538 30.0896C58.5538 30.2441 58.6623 30.3185 58.9936 30.3757C59.1141 30.3986 59.2166 30.4215 59.2166 30.4272C59.2166 30.4329 59.0117 31.0166 58.7647 31.7204C58.5177 32.4299 58.3249 33.0422 58.343 33.0765C58.355 33.1165 58.4635 33.1509 58.5779 33.1509C58.8491 33.1509 58.843 33.1623 59.3672 31.6174L59.7829 30.4043H61.024C61.9277 30.4043 62.2892 30.4215 62.3555 30.473C62.4097 30.5131 62.6326 31.0051 62.8615 31.5716C63.2953 32.6473 63.4098 32.819 63.8375 33.0078C64.1026 33.1337 64.8196 33.1967 64.8196 33.0994C64.8196 33.0135 62.0723 26.2674 61.9277 25.9984C61.7831 25.7352 61.5602 25.5922 61.2288 25.5521C61.0119 25.5292 60.9637 25.5464 60.8854 25.6608ZM61.5903 28.4646C61.9157 29.2542 62.1627 29.9123 62.1506 29.9237C62.1386 29.9409 61.6385 29.9409 61.036 29.9351L59.9516 29.918L60.4396 28.476C60.7107 27.6807 60.9517 27.0284 60.9698 27.0284C60.9878 27.0284 61.271 27.675 61.5903 28.4646Z" fill="black"/>
<path d="M66.7176 25.6087C66.6995 25.6487 66.6935 27.3539 66.6995 29.4023L66.7176 33.1216H68.6154H70.5132L70.5674 32.9671C70.5975 32.8813 70.6036 32.7897 70.5795 32.7668C70.5554 32.7382 69.971 32.7096 69.2902 32.6924L68.043 32.6638L68.0129 29.3451C67.9888 26.7931 67.9647 25.9978 67.9045 25.9005C67.79 25.7002 67.3984 25.54 67.049 25.54C66.8622 25.54 66.7357 25.5686 66.7176 25.6087Z" fill="black"/>
<path d="M74.7393 25.7233C74.6911 25.8263 74.3477 26.8219 73.9741 27.9262L73.2873 29.9461H72.8836C72.4378 29.9461 72.3595 29.9976 72.4981 30.1978C72.5583 30.2894 72.6668 30.3466 72.8535 30.3695L73.1246 30.4095L72.6728 31.697C72.4258 32.4008 72.239 33.0187 72.2571 33.0645C72.3113 33.2018 72.6366 33.1732 72.739 33.0187C72.7812 32.9501 73.0162 32.3321 73.2572 31.6455L73.691 30.4038H74.8718C75.5225 30.4038 76.1129 30.421 76.1852 30.4381C76.2816 30.461 76.4021 30.6956 76.7455 31.5482C77.2154 32.6983 77.342 32.8871 77.7878 33.0588C78.0167 33.1503 78.6493 33.1847 78.7036 33.1046C78.7518 33.0302 75.8538 25.9807 75.7093 25.8377C75.5225 25.6432 75.2875 25.5402 75.0345 25.5402C74.8477 25.5402 74.8055 25.563 74.7393 25.7233ZM75.4803 28.4297C75.7876 29.185 76.0527 29.8373 76.0707 29.8717C76.0948 29.9289 75.8538 29.9461 74.9742 29.9461C74.0524 29.9461 73.8536 29.9346 73.8717 29.8659C73.9621 29.5055 74.8598 26.9821 74.8899 27.0164C74.908 27.0393 75.173 27.6744 75.4803 28.4297Z" fill="black"/>
<path d="M88.6473 25.6087C88.6292 25.6487 88.6232 27.3539 88.6292 29.4023L88.6473 33.1216H90.5391H92.4308L92.4911 32.9556C92.5333 32.8355 92.5272 32.784 92.467 32.7439C92.4188 32.7153 91.8344 32.6924 91.1656 32.6924H89.9426V30.5868V28.4754L91.0692 28.4353C91.738 28.4124 92.226 28.3724 92.2742 28.338C92.3164 28.3037 92.3525 28.2121 92.3525 28.1378V28.0004H91.1476H89.9426V27.0048V26.0149L91.1837 25.9863C92.3164 25.9634 92.4369 25.952 92.5092 25.8547C92.5574 25.7975 92.5935 25.7002 92.5935 25.643C92.5935 25.5457 92.4851 25.54 90.6355 25.54C89.1232 25.54 88.6654 25.5572 88.6473 25.6087Z" fill="black"/>
<path d="M6.81935 25.2259C5.69874 25.5235 4.62634 26.4275 3.07195 28.373L2.30078 29.34L2.93338 30.1468C4.30703 31.8805 5.13242 32.6759 6.0783 33.168C7.24711 33.7802 8.64485 33.6372 9.27745 32.8418C9.84378 32.1323 9.78955 31.0451 9.169 30.5931C8.89789 30.3986 8.38579 30.3413 8.15684 30.4844C7.90983 30.6389 7.76524 30.9135 7.76524 31.2225C7.76524 31.583 7.84356 31.7203 8.06045 31.7203C8.31951 31.7203 8.38579 31.6059 8.33759 31.234C8.28336 30.8563 8.36169 30.7304 8.60268 30.7877C9.25335 30.9307 9.44614 31.4686 9.04851 32.0465C8.50628 32.8476 7.4399 32.7617 6.98804 31.8805C6.63258 31.1939 6.6868 30.4558 7.13264 29.9637C7.33748 29.7348 7.9761 29.3743 8.18094 29.3743C8.23517 29.3743 8.12672 29.3114 7.93995 29.237C7.50015 29.0711 7.25313 28.8994 7.04226 28.6248C6.68078 28.1498 6.65668 27.4518 6.98804 26.8109C7.19288 26.4161 7.47002 26.1929 7.87368 26.1071C8.64485 25.9469 9.48229 26.8338 9.1931 27.5033C9.06658 27.7836 8.62678 27.9896 8.39783 27.8752C8.30746 27.8237 8.30144 27.7665 8.33156 27.4746C8.37976 27.0856 8.31951 26.9711 8.0725 26.9711C7.83151 26.9711 7.76524 27.0741 7.76524 27.4231C7.76524 28.0068 8.08455 28.3215 8.6328 28.2757C9.04248 28.2414 9.31962 28.0526 9.51844 27.6749C9.71123 27.2915 9.71726 26.5992 9.52446 26.2273C9.30757 25.8096 9.05453 25.5578 8.63883 25.3632C8.30144 25.2088 8.16889 25.1801 7.68691 25.163C7.3194 25.1458 7.02419 25.1687 6.81935 25.2259ZM6.56028 26.5362C6.59041 26.6221 6.59041 26.8338 6.54823 27.0913C6.46991 27.652 6.50606 28.2071 6.65066 28.4874C6.71693 28.6133 6.90972 28.8536 7.08444 29.0196C7.25916 29.1855 7.40375 29.3343 7.40375 29.3457C7.40375 29.3572 7.25916 29.5059 7.08444 29.6719C6.90972 29.8378 6.71693 30.0781 6.65066 30.204C6.50606 30.4844 6.46991 31.0394 6.54823 31.6002C6.62656 32.1323 6.57233 32.2925 6.31929 32.2925C6.09638 32.2925 5.73489 32.1266 5.5662 31.9492C5.38546 31.7547 5.41558 31.3713 5.65055 30.9307C5.87346 30.513 5.80719 30.4615 5.52403 30.8449C5.09627 31.44 4.78901 31.5372 4.41547 31.1825C4.23473 31.0108 4.21063 30.9536 4.21063 30.6961C4.21063 30.4501 4.24075 30.3757 4.40945 30.1983C4.51187 30.0781 4.73478 29.8836 4.89143 29.7634C5.05409 29.6433 5.14447 29.546 5.09627 29.546C5.04807 29.546 4.75888 29.6261 4.44559 29.7234C3.75877 29.9351 3.58405 29.9179 3.28282 29.6032C3.16232 29.4773 3.06593 29.3629 3.06593 29.3457C3.06593 29.3286 3.16232 29.2141 3.28282 29.0882C3.58405 28.7735 3.75877 28.7564 4.44559 28.9681C4.75888 29.0653 5.04807 29.1455 5.09627 29.1455C5.14447 29.1455 5.05409 29.0482 4.89143 28.928C4.73478 28.8079 4.51187 28.6133 4.40945 28.4932C4.24075 28.3158 4.21063 28.2414 4.21063 27.9953C4.21063 27.7379 4.23473 27.6806 4.41547 27.509C4.78901 27.1542 5.09627 27.2515 5.52403 27.8408C5.80719 28.2299 5.87346 28.1784 5.65055 27.755C5.31316 27.1313 5.38546 26.7651 5.89756 26.5076C6.21085 26.3531 6.48799 26.3646 6.56028 26.5362Z" fill="black"/>
<path d="M6.16981 28.9401C5.91082 29.0488 5.65183 29.2949 5.69399 29.3979C5.75422 29.5524 6.44085 29.9243 6.44085 29.8041C6.44085 29.7812 6.32642 29.6668 6.19391 29.5524L5.94696 29.3464L6.19391 29.1289C6.52518 28.8428 6.51916 28.7913 6.16981 28.9401Z" fill="black"/>
<path d="M101.747 25.2202C100.862 25.4434 100.349 26.0785 100.343 26.9425C100.343 27.7436 100.711 28.2242 101.368 28.2757C101.916 28.3215 102.235 28.0068 102.235 27.4231C102.235 27.0741 102.169 26.9711 101.928 26.9711C101.681 26.9711 101.621 27.0856 101.669 27.4746C101.699 27.7665 101.693 27.8237 101.603 27.8752C101.374 27.9896 100.934 27.7836 100.807 27.5033C100.518 26.8338 101.356 25.9469 102.127 26.1071C102.53 26.1929 102.808 26.4161 103.012 26.8109C103.368 27.4975 103.314 28.2357 102.868 28.7278C102.663 28.9566 102.024 29.3171 101.82 29.3171C101.765 29.3171 101.874 29.3801 102.061 29.4544C102.5 29.6204 102.747 29.792 102.958 30.0667C103.32 30.5416 103.344 31.2397 103.012 31.8805C102.561 32.7617 101.494 32.8476 100.952 32.0465C100.554 31.4686 100.747 30.9307 101.398 30.7877C101.639 30.7304 101.717 30.8563 101.663 31.234C101.615 31.6059 101.681 31.7203 101.94 31.7203C102.157 31.7203 102.235 31.583 102.235 31.2225C102.235 30.9135 102.091 30.6389 101.844 30.4844C101.615 30.3413 101.103 30.3986 100.831 30.5931C100.211 31.0451 100.157 32.1323 100.723 32.8418C101.356 33.6372 102.753 33.7802 103.922 33.168C104.868 32.6759 105.693 31.8805 107.067 30.1468L107.7 29.34L106.929 28.373C105.043 26.0098 103.814 25.1286 102.416 25.1458C102.199 25.1458 101.898 25.1801 101.747 25.2202ZM104.091 26.5076C104.615 26.7594 104.693 27.1256 104.35 27.755C104.127 28.1784 104.193 28.2299 104.476 27.8408C104.904 27.2515 105.211 27.1542 105.585 27.509C105.766 27.6806 105.79 27.7379 105.79 27.9953C105.79 28.2414 105.76 28.3158 105.597 28.4932C105.489 28.6133 105.266 28.8079 105.109 28.928C104.946 29.0482 104.856 29.1455 104.904 29.1455C104.952 29.1455 105.242 29.0653 105.555 28.9681C106.242 28.7564 106.416 28.7735 106.718 29.0882C106.838 29.2141 106.935 29.3286 106.935 29.3457C106.935 29.3629 106.838 29.4773 106.718 29.6032C106.416 29.9179 106.242 29.9351 105.555 29.7234C105.242 29.6261 104.952 29.546 104.904 29.546C104.856 29.546 104.946 29.6433 105.109 29.7634C105.266 29.8836 105.489 30.0781 105.597 30.1983C105.76 30.3757 105.79 30.4501 105.79 30.6961C105.79 30.9536 105.766 31.0108 105.585 31.1825C105.211 31.5372 104.904 31.44 104.476 30.8449C104.193 30.4615 104.127 30.513 104.35 30.9307C104.585 31.3713 104.615 31.7547 104.434 31.9492C104.266 32.1266 103.904 32.2925 103.681 32.2925C103.428 32.2925 103.374 32.1323 103.452 31.6002C103.531 31.0394 103.494 30.4844 103.35 30.204C103.284 30.0781 103.091 29.8378 102.916 29.6719C102.741 29.5059 102.597 29.3572 102.597 29.3457C102.597 29.3343 102.741 29.1855 102.916 29.0196C103.091 28.8536 103.284 28.6133 103.35 28.4874C103.494 28.2071 103.531 27.652 103.452 27.0913C103.374 26.5591 103.428 26.3989 103.681 26.3989C103.784 26.3989 103.964 26.4504 104.091 26.5076Z" fill="black"/>
<path d="M103.561 28.8817C103.561 28.8988 103.675 29.0133 103.807 29.1277L104.054 29.3451L103.801 29.5569C103.506 29.8029 103.512 29.8773 103.807 29.7571C104.085 29.6484 104.35 29.4024 104.307 29.2936C104.247 29.1449 103.561 28.7672 103.561 28.8817Z" fill="black"/>
<path d="M54.8198 54.1217C54.7415 54.2018 54.5306 54.3335 54.3559 54.4136C54.0607 54.551 53.9884 54.5624 53.3618 54.5452C52.7413 54.5224 52.681 54.5338 52.663 54.6254C52.6208 54.8143 52.7835 55.0775 52.9823 55.1577C53.1931 55.2378 53.4763 55.192 53.8137 55.026C54.0788 54.9001 54.0788 54.986 53.8137 55.1405C53.4823 55.3408 53.3739 55.4553 53.3739 55.6041C53.3739 55.7701 53.5365 55.9132 53.7836 55.959C54.0728 56.0162 54.2414 55.9475 54.5427 55.6556C54.8499 55.3637 54.8921 55.4095 54.6993 55.8388C54.5306 56.2108 54.5487 56.3482 54.7656 56.5199C54.9945 56.703 55.0066 56.703 55.2355 56.5199C55.4524 56.3482 55.4705 56.2108 55.3018 55.8388C55.109 55.4095 55.1512 55.3637 55.4584 55.6556C55.7597 55.9475 55.9284 56.0162 56.2176 55.959C56.4646 55.9132 56.6272 55.7701 56.6272 55.6041C56.6272 55.4553 56.5188 55.3408 56.1874 55.1405C55.9224 54.986 55.9224 54.9001 56.1874 55.026C56.7176 55.2893 57.1394 55.2378 57.2839 54.9058C57.4406 54.5452 57.3924 54.5224 56.6453 54.5395C55.8983 54.5624 55.6332 54.4937 55.2295 54.156C55.109 54.0587 55.0006 53.9786 54.9885 53.9786C54.9704 53.9786 54.8981 54.0416 54.8198 54.1217ZM55.1813 54.7341C55.3078 54.6425 55.362 54.6311 55.362 54.6826C55.362 54.7227 55.2837 54.8314 55.1813 54.923L55.0006 55.089L54.8198 54.923C54.7234 54.8314 54.6391 54.7227 54.6391 54.6826C54.6391 54.6311 54.6933 54.6425 54.8198 54.7341L55.0006 54.86L55.1813 54.7341Z" fill="black"/>
<path d="M32.8035 6.6637C32.5746 6.72664 32.424 6.86397 32.3457 7.09284C32.2493 7.36178 32.3096 7.419 32.5625 7.30456C32.8275 7.1844 32.9721 7.25306 32.9962 7.51055C33.0384 7.91108 32.5505 8.42606 31.5085 9.07836C30.852 9.49034 30.7616 9.57617 30.9724 9.57617C31.3097 9.57617 32.3276 8.96392 32.9119 8.40889C33.2612 8.0713 33.5443 7.59638 33.5925 7.24734C33.6467 6.84108 33.2492 6.54926 32.8035 6.6637Z" fill="black"/>
<path d="M76.8585 6.64632C76.6597 6.6692 76.3887 6.96102 76.3887 7.14985C76.3887 7.36728 76.5995 7.83076 76.8404 8.13975C77.0934 8.47162 77.6897 8.91221 78.2619 9.19831C78.6594 9.39857 79.1593 9.54735 79.1593 9.46152C79.1593 9.43863 78.8883 9.25553 78.557 9.0667C77.5632 8.48306 76.9609 7.88226 77.003 7.51033C77.0271 7.25284 77.1717 7.18418 77.4367 7.30434C77.6897 7.41878 77.7499 7.36156 77.6535 7.09263C77.5451 6.7722 77.2379 6.60054 76.8585 6.64632Z" fill="black"/>
<path d="M20.8107 8.80341C19.2442 9.12384 17.985 10.2339 17.7621 11.487C17.6296 12.2366 17.8887 13.2837 18.5514 14.6799C18.7201 15.0346 18.8767 15.3608 18.8948 15.3951C18.9671 15.5553 18.7863 15.4523 18.3526 15.0747C17.5392 14.3651 16.4186 13.7415 15.4727 13.4554C15.1112 13.3524 14.8943 13.3238 14.328 13.3238C13.6472 13.3238 13.6171 13.3295 13.2134 13.524C12.5085 13.8673 12.1772 14.451 12.2374 15.2463C12.2917 15.9558 12.7435 16.4365 13.4062 16.488C13.9665 16.5338 14.5027 16.2419 14.6112 15.8414C14.7016 15.5038 14.322 15.0117 13.9726 15.0117C13.7195 15.0117 13.6171 15.0632 13.5207 15.2463C13.4002 15.4638 13.4002 15.4695 13.6111 15.4695C13.846 15.4695 14.2075 15.6125 14.2497 15.7212C14.3401 15.9501 13.9665 16.2133 13.5448 16.2133C12.9664 16.2133 12.5387 15.7384 12.6049 15.1834C12.7315 14.182 13.846 13.524 15.1173 13.6957C16.268 13.8502 17.4067 14.4395 18.4791 15.4409L19.0936 16.0131V16.3163V16.6196L19.3587 16.5853C19.666 16.5395 19.7202 16.5624 20.3588 17.0144C21.2023 17.6038 23.4254 18.8798 24.0038 19.1029L24.2448 19.2002L24.0941 19.0571C24.0098 18.977 23.323 18.5364 22.5578 18.073C20.0937 16.5795 19.8708 16.3964 19.2563 15.3665C18.4008 13.936 18.1055 13.0605 18.1417 12.042C18.1598 11.4984 18.1778 11.3955 18.3586 11.0407C18.7743 10.1996 19.8768 9.41566 20.9372 9.20395C22.2807 8.93501 23.5579 9.347 24.064 10.211C24.54 11.0235 24.0821 12.1508 23.094 12.6142C22.6422 12.8259 21.9795 12.9003 21.5999 12.7802C21.0516 12.6085 20.7444 12.105 20.7926 11.4584C20.8348 10.932 21.148 10.6115 21.6722 10.56C22.0578 10.5257 22.365 10.623 22.5578 10.8404C22.7808 11.0922 22.7627 11.3668 22.5157 11.59C22.3349 11.7502 22.2988 11.7617 22.0036 11.7273C21.6963 11.693 21.6842 11.6987 21.6842 11.8303C21.6842 12.105 21.9975 12.2366 22.3048 12.0878C22.8952 11.8017 23.1302 11.1609 22.7928 10.7775C22.5819 10.5429 22.2205 10.3712 21.8349 10.3369C21.4011 10.2911 20.9131 10.5028 20.6902 10.8233C20.3648 11.2925 20.4492 12.0993 20.8709 12.5456C21.4071 13.1063 22.4795 13.2208 23.3953 12.8088C23.8652 12.5971 24.1845 12.3052 24.3954 11.899C24.552 11.5957 24.5882 11.4641 24.5882 11.138C24.5882 9.95352 23.8773 9.1124 22.6181 8.80341C22.1903 8.70041 21.3107 8.70041 20.8107 8.80341Z" fill="black"/>
<path d="M87.3521 8.80341C86.105 9.13528 85.4121 9.96496 85.4121 11.138C85.4121 12.0478 86.1351 12.7916 87.2376 13.0148C87.9305 13.1578 88.7378 12.9575 89.1294 12.5456C89.5511 12.0993 89.6355 11.2925 89.3101 10.8233C89.0872 10.5028 88.5992 10.2911 88.1654 10.3369C87.7798 10.3712 87.4184 10.5429 87.2075 10.7775C86.8701 11.1609 87.1051 11.8017 87.6955 12.0878C88.0028 12.2366 88.316 12.105 88.316 11.8303C88.316 11.6987 88.304 11.693 87.9967 11.7273C87.7015 11.7617 87.6654 11.7502 87.4846 11.59C87.2376 11.3668 87.2195 11.0922 87.4425 10.8404C87.6352 10.623 87.9425 10.5257 88.3281 10.56C88.8522 10.6115 89.1655 10.932 89.2077 11.4584C89.2559 12.105 88.9486 12.6085 88.4004 12.7802C88.0208 12.9003 87.3581 12.8259 86.9062 12.6142C85.9182 12.1508 85.4603 11.0235 85.9363 10.211C86.4423 9.34699 87.7196 8.93501 89.0631 9.20394C90.1235 9.41566 91.226 10.1996 91.6417 11.0407C91.8225 11.3955 91.8405 11.4984 91.8586 12.042C91.8947 13.0605 91.5995 13.936 90.744 15.3665C90.1295 16.3964 89.9066 16.5795 87.4425 18.073C86.6833 18.5364 85.9905 18.977 85.9061 19.0571L85.7555 19.2002L85.9965 19.1029C86.5749 18.8798 88.798 17.6038 89.6415 17.0144C90.2801 16.5624 90.3343 16.5395 90.6416 16.5853L90.9067 16.6196V16.3163V16.0131L91.5272 15.4409C92.5936 14.4395 93.7323 13.8502 94.883 13.6957C96.1543 13.524 97.2688 14.182 97.3953 15.1834C97.4616 15.7384 97.0339 16.2133 96.4555 16.2133C96.0338 16.2133 95.6602 15.9501 95.7506 15.7212C95.7928 15.6125 96.1543 15.4695 96.3892 15.4695C96.6001 15.4695 96.6001 15.4638 96.4796 15.2463C96.3832 15.0632 96.2808 15.0117 96.0277 15.0117C95.6783 15.0117 95.2987 15.5038 95.3891 15.8414C95.4976 16.2419 96.0338 16.5338 96.5941 16.488C97.2568 16.4365 97.7086 15.9558 97.7629 15.2463C97.8231 14.451 97.4917 13.8673 96.7868 13.524C96.3832 13.3295 96.3531 13.3238 95.6723 13.3238C95.1059 13.3238 94.8891 13.3524 94.5276 13.4554C93.5817 13.7415 92.4611 14.3651 91.6477 15.0747C91.2139 15.4523 91.0332 15.5553 91.1055 15.3951C91.1236 15.3608 91.2802 15.0346 91.4489 14.6799C92.5755 12.311 92.5454 11.0579 91.3344 9.91919C90.7982 9.41566 90.3765 9.16961 89.6596 8.92929C89.2077 8.78624 89.0209 8.75191 88.4064 8.74047C87.8883 8.7233 87.587 8.74047 87.3521 8.80341Z" fill="black"/>
<path d="M29.118 9.62707C28.8771 9.77012 28.7084 10.102 28.7506 10.3595C28.8048 10.657 28.9494 10.8287 29.2566 10.9603C29.6119 11.1091 29.901 11.069 30.148 10.8344C30.3106 10.6742 30.3287 10.6284 30.3287 10.2851C30.3287 9.92462 30.3226 9.90173 30.1058 9.7129C29.9131 9.54697 29.8348 9.51836 29.5938 9.51836C29.4192 9.51836 29.2325 9.55841 29.118 9.62707Z" fill="black"/>
<path d="M79.8928 9.7129C79.6759 9.90173 79.6699 9.92462 79.6699 10.2851C79.6699 10.6284 79.688 10.6742 79.8506 10.8344C80.0976 11.069 80.3867 11.1091 80.742 10.9603C81.1998 10.7657 81.3745 10.3538 81.1697 9.9475C81.0311 9.66713 80.7661 9.51836 80.4047 9.51836C80.1638 9.51836 80.0855 9.54697 79.8928 9.7129Z" fill="black"/>
<path d="M26.7194 9.9881C26.34 10.2971 26.5086 10.9723 26.9965 11.0867C27.3278 11.1668 27.5747 11.0467 27.7193 10.7377C27.9301 10.2799 27.7072 9.92516 27.1772 9.87366C26.9303 9.8565 26.858 9.87366 26.7194 9.9881Z" fill="black"/>
<path d="M82.5941 9.90227C82.2388 10.0282 82.1123 10.3715 82.2809 10.7377C82.4255 11.0467 82.6724 11.1668 83.0037 11.0867C83.7024 10.9208 83.6181 9.85077 82.9073 9.86794C82.7869 9.86794 82.6423 9.88511 82.5941 9.90227Z" fill="black"/>
<path d="M15.3374 10.7033C14.9881 10.915 14.8195 11.6017 15.0242 11.9736C15.2652 12.4256 16.1927 12.3627 16.5481 11.8649C16.777 11.5444 16.6926 11.1325 16.3252 10.812C16.0903 10.5946 15.6025 10.5431 15.3374 10.7033Z" fill="black"/>
<path d="M93.883 10.6639C93.5396 10.7955 93.2505 11.3277 93.3469 11.6767C93.4071 11.917 93.7565 12.1917 94.0757 12.2546C94.3588 12.3119 94.4009 12.3061 94.7202 12.1974C95.208 12.02 95.1599 10.9901 94.6479 10.704C94.4612 10.601 94.0938 10.5781 93.883 10.6639Z" fill="black"/>
<path d="M28.2201 11.5328C27.943 11.6759 27.8707 11.9562 28.0394 12.2595C28.214 12.5857 28.732 12.6314 28.973 12.3396C29.3524 11.8819 28.7621 11.2467 28.2201 11.5328Z" fill="black"/>
<path d="M81.0821 11.6315C80.6424 12.055 81.1182 12.7244 81.6965 12.4955C81.9735 12.3811 82.1301 12.0092 82.0157 11.7231C81.9615 11.5972 81.6724 11.4656 81.4495 11.4656C81.323 11.4656 81.2026 11.5171 81.0821 11.6315Z" fill="black"/>
<path d="M26.9798 11.7502C26.6787 11.9047 26.2751 12.3338 26.0945 12.7115C25.974 12.9633 25.9318 13.1521 25.9198 13.524C25.9017 13.9703 25.9017 13.9989 25.986 13.8673C26.0342 13.7872 26.1185 13.5583 26.1728 13.3524C26.3173 12.8202 26.4739 12.5742 26.9317 12.1164C27.1605 11.8933 27.3473 11.693 27.3473 11.6758C27.3473 11.6072 27.2027 11.6358 26.9798 11.7502Z" fill="black"/>
<path d="M82.6523 11.6758C82.6523 11.693 82.8391 11.8933 83.0679 12.1164C83.5257 12.5742 83.6823 12.8202 83.8268 13.3524C83.8811 13.5583 83.9654 13.7872 84.0136 13.8673C84.0979 13.9989 84.0979 13.9703 84.0798 13.524C84.0557 12.9404 83.8811 12.5284 83.4896 12.1221C83.1824 11.8017 82.6523 11.5213 82.6523 11.6758Z" fill="black"/>
<path d="M24.9362 12.9571C24.8218 13.0257 24.3819 13.4034 23.9542 13.7982L23.183 14.5192L22.689 14.3532C22.3034 14.2216 22.1046 14.1873 21.7792 14.193C21.3093 14.2102 21.1406 14.2445 21.1406 14.3418C21.1406 14.3818 21.237 14.5363 21.3455 14.6965C21.5262 14.9426 21.5684 15.0685 21.6527 15.612C21.8094 16.6763 22.1407 17.1055 22.9119 17.2542C23.2553 17.3229 23.2674 17.3229 23.6108 17.1455L23.9542 16.9624L23.9964 17.2886C24.0144 17.466 24.0928 17.7807 24.1651 17.9867C24.2675 18.2785 24.3036 18.3357 24.3398 18.2441C24.3639 18.1812 24.388 18.0382 24.388 17.9237L24.394 17.7177L24.882 17.6548C25.6953 17.5575 25.9604 17.2771 26.2556 16.2071C26.3641 15.818 26.5207 15.3889 26.5991 15.2516C26.8702 14.811 26.6473 14.6164 26.0086 14.7251C25.8098 14.7595 25.6351 14.7766 25.617 14.7595C25.5507 14.6965 25.2917 13.5922 25.2555 13.2203C25.2375 13.0086 25.2013 12.8369 25.1832 12.8369C25.1652 12.8369 25.0507 12.8941 24.9362 12.9571Z" fill="black"/>
<path d="M84.7439 13.2203C84.7077 13.5922 84.4487 14.6965 84.3824 14.7595C84.3643 14.7766 84.1896 14.7595 83.9908 14.7251C83.3522 14.6164 83.1293 14.811 83.4004 15.2516C83.4787 15.3889 83.6353 15.818 83.7438 16.2071C84.039 17.2771 84.3041 17.5575 85.1174 17.6548L85.6054 17.7177L85.6115 17.9237C85.6115 18.0382 85.6356 18.1812 85.6597 18.2441C85.6958 18.3357 85.7319 18.2785 85.8344 17.9867C85.9067 17.7807 85.985 17.466 86.0031 17.2886L86.0452 16.9624L86.3886 17.1455C86.7321 17.3229 86.7441 17.3229 87.0875 17.2542C87.8587 17.1055 88.1901 16.6763 88.3467 15.612C88.431 15.0685 88.4732 14.9426 88.654 14.6965C88.7624 14.5363 88.8588 14.3818 88.8588 14.3418C88.8588 14.2445 88.6901 14.2102 88.2202 14.193C87.8948 14.1873 87.696 14.2216 87.3104 14.3532L86.8164 14.5192L86.0452 13.7982C85.3705 13.1745 84.9427 12.8369 84.8162 12.8369C84.7981 12.8369 84.762 13.0086 84.7439 13.2203Z" fill="black"/>
<path d="M16.7741 17.5636C15.5451 17.8211 14.7859 18.5022 14.7076 19.418C14.6956 19.6241 14.6956 19.7786 14.7136 19.7614C14.7317 19.7442 14.8823 19.5325 15.051 19.2921C15.5571 18.5766 16.0632 18.2733 16.8103 18.2275C17.3886 18.1932 17.7863 18.3134 18.0935 18.5995C18.3405 18.8399 18.3466 18.8457 18.214 19.1719C18.1176 19.4008 18.1176 19.4352 18.22 19.6813C18.3827 20.0877 19.0575 20.4826 19.5154 20.4368C19.7262 20.4196 19.7865 20.3509 19.8467 20.0877C19.8648 20.0018 19.901 19.9331 19.9311 19.9331C19.9612 19.9331 20.1419 20.0361 20.3408 20.1621C21.1903 20.7001 21.8108 20.5799 22.2807 19.7843C22.4856 19.4466 22.6723 19.3264 22.9133 19.3837C23.082 19.4237 23.1302 19.5325 22.9736 19.5325C22.8049 19.5325 22.5278 19.853 22.5278 20.0476C22.5278 20.1449 22.5458 20.2193 22.5759 20.2078C22.6 20.1964 22.7687 20.122 22.9495 20.0361C23.2748 19.8816 23.2869 19.8816 23.6423 19.9617C24.1243 20.0705 24.1183 20.0762 23.9918 19.8759C23.5761 19.2062 20.9794 17.9757 19.2141 17.6151C18.5514 17.4777 17.2983 17.4548 16.7741 17.5636Z" fill="black"/>
<path d="M91.1475 17.5579C89.2738 17.8612 86.4723 19.1261 86.0084 19.8759C85.8819 20.0762 85.8758 20.0705 86.3578 19.9617C86.7133 19.8816 86.7253 19.8816 87.0507 20.0361C87.2314 20.122 87.4001 20.1964 87.4242 20.2078C87.4543 20.2193 87.4724 20.1449 87.4724 20.0476C87.4724 19.853 87.1953 19.5325 87.0266 19.5325C86.8699 19.5325 86.9181 19.4237 87.0868 19.3837C87.3278 19.3264 87.5146 19.4466 87.7194 19.7843C88.1893 20.5799 88.8099 20.7001 89.6594 20.1621C89.8582 20.0361 90.0389 19.9331 90.0691 19.9331C90.0992 19.9331 90.1353 20.0018 90.1534 20.0877C90.2137 20.3509 90.2739 20.4196 90.4848 20.4368C90.9427 20.4826 91.6174 20.0877 91.7801 19.6813C91.8825 19.4352 91.8825 19.4008 91.7861 19.1719C91.6536 18.8457 91.6596 18.8399 91.9066 18.5995C92.2139 18.3134 92.6115 18.1932 93.1899 18.2275C93.937 18.2733 94.443 18.5766 94.9491 19.2921C95.1178 19.5325 95.2684 19.7442 95.2865 19.7614C95.3046 19.7786 95.3046 19.6241 95.2925 19.418C95.1781 17.9986 93.3827 17.1916 91.1475 17.5579Z" fill="black"/>
<path d="M19.2985 38.2533C18.8587 38.3391 18.4189 38.6368 18.2562 38.9515C18.1116 39.2263 18.1116 39.2377 18.214 39.5067C18.3285 39.8272 18.3044 39.9074 17.9851 40.1707C17.726 40.3882 17.2742 40.4969 16.75 40.4626C16.0572 40.4168 15.539 40.0848 15.051 39.398C14.8823 39.1576 14.7317 38.9458 14.7136 38.9287C14.6956 38.9115 14.6956 39.066 14.7076 39.2721C14.7799 40.142 15.4426 40.7888 16.5693 41.0807C17.1115 41.2238 18.461 41.2295 19.1479 41.0864C20.5757 40.7945 22.6 39.9474 23.5158 39.2606C23.8411 39.0202 24.1303 38.6825 24.04 38.6539C24.0098 38.6425 23.8231 38.6768 23.6303 38.7226C23.2869 38.8085 23.2748 38.8085 22.9495 38.6539C22.7687 38.5681 22.6 38.4879 22.5759 38.4822C22.5458 38.4708 22.5278 38.5452 22.5278 38.6425C22.5278 38.8371 22.8049 39.1576 22.9736 39.1576C23.1363 39.1576 23.076 39.2606 22.8953 39.3007C22.6422 39.3522 22.4916 39.2549 22.2807 38.9C21.8168 38.1102 21.1722 37.99 20.3408 38.528C20.148 38.6539 19.9612 38.7569 19.9311 38.7569C19.901 38.7569 19.8648 38.6883 19.8407 38.5967C19.8226 38.5108 19.7985 38.4135 19.7865 38.3735C19.7443 38.2533 19.5515 38.2018 19.2985 38.2533Z" fill="black"/>
<path d="M88.3479 38.2933C88.0707 38.4135 87.9201 38.5623 87.6912 38.9401C87.5044 39.2606 87.3538 39.3522 87.1068 39.3007C86.926 39.2606 86.8658 39.1576 87.0285 39.1576C87.1972 39.1576 87.4743 38.8371 87.4743 38.6425C87.4743 38.5452 87.4562 38.4708 87.4261 38.4822C87.402 38.4879 87.2333 38.5681 87.0526 38.6539C86.7272 38.8085 86.7152 38.8085 86.3718 38.7226C86.179 38.6768 85.9922 38.6425 85.9621 38.6539C85.8717 38.6825 86.1609 39.0202 86.4862 39.2606C87.402 39.9474 89.4263 40.7945 90.8542 41.0864C91.541 41.2295 92.8906 41.2238 93.4328 41.0807C94.5594 40.7888 95.2221 40.142 95.2944 39.2721C95.3065 39.066 95.3065 38.9115 95.2884 38.9287C95.2703 38.9458 95.1197 39.1576 94.951 39.398C94.463 40.0848 93.9449 40.4168 93.252 40.4626C92.7279 40.4969 92.276 40.3882 92.017 40.1707C91.6976 39.9074 91.6736 39.8272 91.788 39.5067C91.8904 39.2377 91.8904 39.2263 91.7458 38.9515C91.6374 38.7398 91.5229 38.6253 91.2759 38.4879C90.9024 38.2762 90.5108 38.1789 90.3481 38.2533C90.2336 38.3105 90.2216 38.3334 90.1613 38.5967C90.1372 38.6883 90.0951 38.7569 90.0649 38.7569C90.0288 38.7569 89.8721 38.6654 89.7095 38.5566C89.3902 38.3391 88.9925 38.1846 88.7455 38.1846C88.6612 38.1846 88.4804 38.2361 88.3479 38.2933Z" fill="black"/>
<path d="M23.5338 39.8057C22.7808 40.1777 21.0878 41.179 20.2684 41.734C19.678 42.1403 19.6599 42.146 19.3828 42.1117L19.0936 42.0716V42.3692C19.0936 42.661 19.0936 42.6667 18.5694 43.176C17.8164 43.9084 16.7982 44.5378 15.9125 44.8182C14.7919 45.1786 13.7376 45.0413 13.111 44.4577C12.2555 43.6566 12.5266 42.4779 13.5629 42.4779C13.8641 42.4779 14.1834 42.6438 14.2437 42.8269C14.3039 43.0043 14.1051 43.1531 13.7255 43.1988C13.5629 43.2217 13.4303 43.2446 13.4303 43.2618C13.4303 43.3419 13.6231 43.6165 13.7014 43.6452C14.0449 43.7653 14.4485 43.5536 14.575 43.1874C14.6654 42.9414 14.6232 42.7697 14.4244 42.5408C14.081 42.1574 13.3098 42.0831 12.8339 42.3806C12.4844 42.6038 12.2736 42.9757 12.2374 43.4449C12.1772 44.2402 12.5085 44.8239 13.2134 45.1672C13.6171 45.3617 13.6472 45.3675 14.328 45.3675C14.8943 45.3675 15.1112 45.3389 15.4787 45.2359C16.4066 44.9555 17.5754 44.2975 18.3405 43.628C18.7683 43.2446 18.9671 43.1302 18.8948 43.2904C18.8767 43.3304 18.7201 43.6566 18.5514 44.0114C17.8887 45.4075 17.6296 46.4546 17.7621 47.2042C17.8585 47.7306 18.1236 48.2399 18.5333 48.6576C19.3406 49.4873 20.5275 49.9736 21.7445 49.9736C23.4555 49.9736 24.5882 49.0123 24.5882 47.559C24.5882 46.4203 23.4375 45.5448 22.0698 45.6421C21.5517 45.6764 21.1601 45.8424 20.8769 46.1456C20.4552 46.5862 20.3648 47.3988 20.6841 47.8622C21.1239 48.4859 22.2566 48.5145 22.7928 47.9137C23.1302 47.5304 22.8952 46.8895 22.3048 46.6034C22.0036 46.4546 21.6842 46.5862 21.6842 46.8552C21.6842 46.9811 21.6963 46.9868 22.0036 46.9582C22.2927 46.9296 22.3349 46.941 22.5157 47.1012C22.7627 47.3244 22.7808 47.599 22.5578 47.8508C22.365 48.0682 22.0578 48.1655 21.6722 48.1312C21.148 48.0797 20.8348 47.7592 20.7926 47.2328C20.7444 46.5862 21.0516 46.0827 21.5999 45.911C21.9795 45.7909 22.6422 45.8653 23.094 46.077C24.0821 46.5405 24.54 47.6677 24.064 48.4802C23.3953 49.636 21.4794 49.9107 19.8467 49.0982C19.3105 48.8292 18.5996 48.1426 18.3586 47.6505C18.1778 47.2958 18.1598 47.1928 18.1417 46.6492C18.1055 45.6307 18.4008 44.7552 19.2563 43.3247C19.8708 42.2948 20.1118 42.0945 22.6362 40.5725C23.7989 39.8687 24.3291 39.5025 24.1966 39.5025C24.1725 39.5025 23.8773 39.6398 23.5338 39.8057Z" fill="black"/>
<path d="M85.9061 39.6341C85.9905 39.7142 86.6472 40.1376 87.3641 40.5725C89.8885 42.0945 90.1295 42.2948 90.744 43.3247C91.5995 44.7552 91.8947 45.6307 91.8586 46.6492C91.8345 47.4674 91.6417 47.8622 90.979 48.4802C90.25 49.1611 89.4547 49.4987 88.4365 49.5559C87.3099 49.6189 86.364 49.2126 85.9363 48.4802C85.4603 47.6677 85.9182 46.5405 86.9062 46.077C87.3581 45.8653 88.0208 45.7909 88.4004 45.911C88.9486 46.0827 89.2559 46.5862 89.2077 47.2328C89.1655 47.7592 88.8522 48.0797 88.3281 48.1312C87.9425 48.1655 87.6352 48.0682 87.4425 47.8508C87.2195 47.599 87.2376 47.3244 87.4846 47.1012C87.6654 46.941 87.7075 46.9296 87.9967 46.9582C88.304 46.9868 88.316 46.9811 88.316 46.8552C88.316 46.5862 87.9967 46.4546 87.6955 46.6034C87.5027 46.7007 87.2316 46.9467 87.1352 47.1241C86.8099 47.7192 87.3822 48.3372 88.2558 48.3372C89.2137 48.3372 89.7198 47.6276 89.4366 46.6892C89.2439 46.0655 88.7137 45.6993 87.9305 45.6421C86.9243 45.5677 85.9965 46.0312 85.5989 46.7979C85.4422 47.0955 85.4121 47.2271 85.4121 47.559C85.4121 49.0123 86.5448 49.9736 88.2558 49.9736C89.4728 49.9736 90.6597 49.4873 91.467 48.6576C91.8767 48.2399 92.1418 47.7306 92.2382 47.2042C92.3707 46.4546 92.1116 45.4075 91.4489 44.0114C91.2802 43.6566 91.1236 43.3304 91.1055 43.2904C91.0332 43.1302 91.232 43.2446 91.6598 43.628C92.4249 44.2975 93.5937 44.9555 94.5215 45.2359C94.8891 45.3389 95.1059 45.3675 95.6723 45.3675C96.3531 45.3675 96.3832 45.3617 96.7868 45.1672C97.4917 44.8239 97.8231 44.2402 97.7629 43.4449C97.7267 42.9757 97.5158 42.6038 97.1664 42.3806C96.6905 42.0831 95.9193 42.1574 95.5759 42.5408C95.3771 42.7697 95.3349 42.9414 95.4253 43.1874C95.5518 43.5536 95.9554 43.7653 96.2988 43.6452C96.3772 43.6165 96.57 43.3419 96.57 43.2618C96.57 43.2446 96.4374 43.2217 96.2747 43.1988C95.8952 43.1531 95.6964 43.0043 95.7566 42.8269C95.8169 42.6438 96.1362 42.4779 96.4374 42.4779C97.4737 42.4779 97.7448 43.6566 96.8893 44.4577C96.2627 45.0413 95.2084 45.1786 94.0878 44.8182C93.2021 44.5378 92.1839 43.9084 91.4369 43.176C90.9067 42.6667 90.9067 42.661 90.9067 42.3692V42.0716L90.6235 42.1117C90.3404 42.146 90.3223 42.1403 89.7319 41.734C88.6534 41.0016 86.599 39.8229 85.9965 39.5883L85.7555 39.491L85.9061 39.6341Z" fill="black"/>
<path d="M24.1904 40.595C24.1362 40.7324 24.0578 41.0414 24.0217 41.2817L23.9494 41.7165L23.606 41.5392C23.2746 41.3675 23.2565 41.3675 22.9131 41.4362C22.142 41.5849 21.8106 42.0141 21.654 43.0784C21.5696 43.622 21.5274 43.7478 21.3467 43.9939C21.0997 44.3429 21.0937 44.4059 21.3105 44.4516C21.7443 44.5375 22.1962 44.5031 22.6962 44.3372L23.1903 44.1655L23.9012 44.835C24.5398 45.4301 25.064 45.8535 25.1784 45.8535C25.2025 45.8535 25.2387 45.6819 25.2568 45.4644C25.2929 45.0982 25.552 43.9939 25.6182 43.9309C25.6363 43.9138 25.799 43.9252 25.9858 43.9595C26.3713 44.0282 26.6605 43.9595 26.7148 43.7879C26.7389 43.7249 26.6907 43.5819 26.6003 43.4389C26.522 43.3015 26.3713 42.8838 26.2629 42.5119C26.046 41.7165 26.0159 41.6593 25.7267 41.3732C25.4857 41.1329 25.082 40.9899 24.6543 40.9899C24.3952 40.9899 24.3952 40.9899 24.3892 40.7724C24.3892 40.658 24.3651 40.5149 24.341 40.452C24.3049 40.3662 24.2808 40.3948 24.1904 40.595Z" fill="black"/>
<path d="M85.6472 40.4749C85.6231 40.555 85.605 40.7038 85.605 40.801C85.605 40.9841 85.599 40.9899 85.3459 40.9899C84.9182 40.9899 84.5145 41.1329 84.2735 41.3732C83.9843 41.6593 83.9542 41.7165 83.7373 42.5119C83.6289 42.8838 83.4783 43.3015 83.3999 43.4389C83.3096 43.5819 83.2614 43.7249 83.2855 43.7879C83.3397 43.9595 83.6289 44.0282 84.0145 43.9595C84.2012 43.9252 84.3639 43.9138 84.382 43.9309C84.4482 43.9939 84.7073 45.0982 84.7435 45.4644C84.7615 45.6819 84.7977 45.8535 84.8218 45.8535C84.9363 45.8535 85.4604 45.4301 86.099 44.835L86.81 44.1655L87.304 44.3372C87.804 44.5031 88.2559 44.5375 88.6897 44.4516C88.9066 44.4059 88.9005 44.3429 88.6535 43.9939C88.4728 43.7478 88.4306 43.622 88.3463 43.0784C88.1896 42.0141 87.8583 41.5849 87.0871 41.4362C86.7437 41.3675 86.7256 41.3675 86.3942 41.5392L86.0508 41.7165L85.9846 41.2817C85.9424 41.0414 85.8641 40.7324 85.7978 40.5893C85.6954 40.3547 85.6833 40.3433 85.6472 40.4749Z" fill="black"/>
<path d="M25.9083 45.053C25.9023 45.671 26.1011 46.1516 26.5408 46.5979C26.7998 46.8611 27.2515 47.1129 27.3298 47.0385C27.3479 47.0156 27.1792 46.8096 26.9443 46.5808C26.4745 46.1173 26.3179 45.8712 26.1734 45.3391C26.1191 45.1331 26.0348 44.9042 25.9927 44.8241C25.9144 44.6925 25.9083 44.704 25.9083 45.053Z" fill="black"/>
<path d="M83.9963 44.8413C83.9542 44.9214 83.8759 45.1503 83.8277 45.3505C83.6831 45.8712 83.5265 46.123 83.0567 46.5808C82.8218 46.8096 82.6532 47.0156 82.6712 47.0385C82.7495 47.1129 83.2013 46.8611 83.4603 46.5979C83.912 46.1402 84.1168 45.6138 84.0867 45.0244C84.0686 44.704 84.0626 44.6925 83.9963 44.8413Z" fill="black"/>
<path d="M28.2563 46.2141C27.9853 46.3686 27.8588 46.7921 28.0274 47.0038C28.3587 47.4157 29.0935 47.204 29.0935 46.6891C29.0935 46.2942 28.6117 46.0253 28.2563 46.2141Z" fill="black"/>
<path d="M81.2325 46.1961C80.8771 46.3334 80.7988 46.7912 81.0819 47.0601C81.4313 47.3863 82.0456 47.1974 82.0516 46.7568C82.0577 46.3163 81.6481 46.0359 81.2325 46.1961Z" fill="black"/>
<path d="M15.3868 46.4533C15.2543 46.4991 15.1399 46.5391 15.1338 46.5391C15.1278 46.5391 15.0796 46.6135 15.0254 46.7108C14.8086 47.1113 14.9953 47.8037 15.3808 47.9982C16.1156 48.3759 17.013 47.4718 16.5493 46.8252C16.3023 46.4819 15.7843 46.316 15.3868 46.4533Z" fill="black"/>
<path d="M94.0223 46.4368C93.7452 46.5055 93.4019 46.803 93.3477 47.0147C93.2754 47.278 93.3718 47.5698 93.6127 47.8101C93.7934 47.9989 93.8837 48.0447 94.1247 48.0676C94.5162 48.1134 94.7812 47.976 94.9438 47.6556C95.0884 47.3752 95.1004 46.9461 94.9739 46.7172C94.8414 46.4654 94.4078 46.3396 94.0223 46.4368Z" fill="black"/>
<path d="M26.8165 47.6616C26.5093 47.8675 26.419 48.2738 26.6238 48.5828C26.8888 49.0005 27.6838 48.8517 27.7983 48.3711C27.8525 48.1479 27.6658 47.7531 27.461 47.6558C27.2441 47.5471 26.9851 47.5471 26.8165 47.6616Z" fill="black"/>
<path d="M82.5284 47.6558C82.3357 47.7588 82.155 48.1536 82.2032 48.3711C82.2514 48.5885 82.4742 48.7716 82.7332 48.8116C83.0525 48.8574 83.2452 48.7888 83.3777 48.5828C83.7511 48.0048 83.1428 47.3411 82.5284 47.6558Z" fill="black"/>
<path d="M29.3041 47.6951C29.0571 47.781 28.9126 47.9068 28.8162 48.1243C28.7078 48.3646 28.7078 48.5076 28.8282 48.748C28.9607 49.0112 29.2499 49.1714 29.5992 49.1714C29.8341 49.1714 29.9124 49.1371 30.0991 48.9768C30.2979 48.8052 30.322 48.7537 30.3461 48.4447C30.3702 48.1128 30.3641 48.0842 30.1714 47.8839C29.9425 47.6493 29.6233 47.5807 29.3041 47.6951Z" fill="black"/>
<path d="M80.0851 47.6783C80.0188 47.7069 79.8863 47.8156 79.796 47.9186C79.6454 48.0902 79.6273 48.1417 79.6514 48.445C79.6755 48.754 79.6996 48.8055 79.8984 48.9771C80.597 49.5894 81.6571 48.6968 81.097 47.9701C80.8982 47.7126 80.3742 47.5638 80.0851 47.6783Z" fill="black"/>
<path d="M30.8379 49.2117C30.8379 49.2403 31.115 49.4234 31.4522 49.6294C32.4702 50.2417 33.0363 50.8081 32.9942 51.1801C32.9701 51.4375 32.8255 51.5062 32.5605 51.3861C32.3075 51.2716 32.2473 51.3288 32.3437 51.6035C32.5003 52.0498 33.0905 52.1928 33.4338 51.8667C33.6386 51.6664 33.6507 51.5119 33.4941 51.1171C33.3254 50.6994 32.9942 50.2989 32.5364 49.9727C31.9582 49.5607 30.8379 49.0572 30.8379 49.2117Z" fill="black"/>
<path d="M78.822 49.2518C78.1836 49.4406 77.1958 50.0872 76.8404 50.5506C76.5935 50.8654 76.3887 51.3231 76.3887 51.552C76.3887 51.6378 76.4609 51.7694 76.5633 51.8667C76.9067 52.1928 77.4969 52.0498 77.6535 51.6035C77.7499 51.3288 77.6897 51.2716 77.4367 51.3861C77.1717 51.5062 77.0271 51.4375 77.003 51.1801C76.9609 50.8081 77.527 50.2417 78.5449 49.6294C79.2798 49.1831 79.346 49.0973 78.822 49.2518Z" fill="black"/>
</svg>
